<mxfile host="Electron" modified="2023-08-27T03:54:15.299Z" agent="Mozilla/5.0 (Windows NT 10.0; Win64; x64) AppleWebKit/537.36 (KHTML, like Gecko) draw.io/21.6.8 Chrome/114.0.5735.289 Electron/25.5.0 Safari/537.36" etag="snegvWaIzh4I6kw5pNpc" version="21.6.8" type="device">
  <diagram name="Trang-1" id="ju_-LvagypS-8fWW3A5q">
    <mxGraphModel dx="782" dy="547" grid="1" gridSize="10" guides="1" tooltips="1" connect="1" arrows="1" fold="1" page="1" pageScale="1" pageWidth="827" pageHeight="1169" math="0" shadow="0">
      <root>
        <mxCell id="0" />
        <mxCell id="1" parent="0" />
        <mxCell id="4sLgDafcORPO4dD0YoIv-8" value="" style="rounded=1;whiteSpace=wrap;html=1;fillColor=#ebebf4;strokeColor=none;" parent="1" vertex="1">
          <mxGeometry x="320" y="350" width="200" height="90" as="geometry" />
        </mxCell>
        <mxCell id="7VKhCpt4MTZpHvpz2MPJ-1" value="" style="shape=image;verticalLabelPosition=bottom;labelBackgroundColor=default;verticalAlign=top;aspect=fixed;imageAspect=0;image=data:image/png,iVBORw0KGgoAAAANSUhEUgAAAgAAAAIAEAYAAACk6Ai5AAAAIGNIUk0AAHomAACAhAAA+gAAAIDoAAB1MAAA6mAAADqYAAAXcJy6UTwAAAAGYktHRAAAAAAAAPlDu38AAAAJcEhZcwAAAGAAAABgAPBrQs8AAAAHdElNRQfnAxoMKiIMgDgZAAB82klEQVR42uzdeZyO9frA8et6ZrEVZsbaImsiUkpUosVJWdpspwVRM4Nkyb7NPbcZ+1IIsxQhLQZ1hNNCJ1RIqShLVKgQ8zxj32bm+f7+yOPXUadSM/Odmefzfr3Oq1ed4uMZY57vNfd93SIAAAAAAAAAAAAAAAAAAAAAAAAAAAAAAAAAAAAAAAAAAAAAAAAAAAAAAAAAAAAAAAAAAAAAAAAAAAAAAAAAAAAAAAAAAAAAAAAAAAAAAAAAAAAAAAAAAAAAAAAAAAAAAAAAAAAAAAAAAAAAAAAAAAAAAAAAAAAAAAAAAAAAAAAAAAAAAAAAAAAAAAAAAAAAAAAAAAAAAAAAAAAAAAAAAAAAAAAAAAAAAAAAAAAAAAAAAAAAAAAAAAAAAAAAAAAA8Oeo7QAAAHDhuncfM+bQoYiI7Owzdf3+m2/WZH9LE9GggRzTtdKlRg15x9ykb1arZq4RMXMrVNBYEZGSJeU5TZR1JUqc+4F6muHS6PhxkywicuSIbhLRTvv3yz9FzLU7d5p1Ho/M3LFDkuVNLfPJJ6eT/S014sMP56irEXrokO3XAQAA/HkMAAAAyMd61Eio5L2zVq3sIVm75el27eQDEdn84IOyWUfKbXXrSn0xUsPjybOgjaKyw++XhXKZLNi0Sf5pusqpRYs8n4bebb5PS5t5ZsTbZd7cvt326wYAAH6NAQAAAPlAu7aOMf7w8IhIkYxDbdvqGp0njXv3libyrVlz4422+/60u4yjV65fL995+shrU6aY7RVqRdyxcGFKamw39WRm2s4DACCYMQAAAMACxzjG+END96d7mmXc0aWLPOZfIescRy5T1/x46aW2+3LMQ1JKwn/4QRbru3IkPt63r9ZjkZe8+GJaWvv2qtnZtvMAAAgmDAAAAMhD3d52THrKHXeYeZqiHadNkxKyT07Urm27K8/0NY4c/+orqSniv7xnz2R1tay+/77tLAAAggEDAAAAclFMjGP2RhcvrlVEiqyNi5PFOlKeHzAgz+/dz2+6GUe8xohXt8jK1NQQn6mdHdmv34z2rpbrcOyY7TwAAAojBgAAAOSC2HUJAw7eWqOGqZA1PuTzf/1Lx6hrdtWqZbsr38owjvbfsUPuFjFt778/uaurUS23bLGdBQBAYcIAAACAHBS7zjG+JS1ayOsipvbLL8shdSWiVCnbXQVGaeNIxuHD8oCIbnn44eRGrkbeu3y57SwAAAqD4L30EACAHNTtbcf4xv/zn/KSiPn2jTc4+P9Fgddti4gJWbIkdrhj0n2dOtnOAgCgMGAAAADA3xDjdR/wjurSxfwoYq5+6SXJVFc6hoXZ7irw1qsrjUJCpKqIrp01i0EAAAB/HwMAAAD+gugl7vu+gffco2XNdVIpJeXcgRU56/xBQGn3tYzOrVvbzgIAoCBiBwAAABeg2/CRzx968LrrzCr/Af8Hq1dLbTljtl50ke2uoHGncbTc0aOyKeRtfenWW5MT4+6OeOiLL2xnAQBQEHAFAAAAf0KPBY458NpFF5kXsx/3//jKKxz8LVmprjlw8cWmi/8b89nChV0HjNuW3vrii21nAQBQEDAAAADgT8jO1vUhI2bOlJbqmuU1a9ruCXY6Xg6aQdWrh40/UdNTYdo02z0AABQE3AIAAMDv6PaM+6n3ZPPmZpt5U0689ZbtHvwPXYyjH7ZsyWMDAQD437gCAACA3/DU8ql3G3+RIuZ2s17bTZ1quwe/z5TVGfLBlCmdjWO+M0WL2u4BACA/YgAAAMBvODMx4+OMDX36yEw5YOZceaXtHvy+wC0BRd8WKfXPnj1t9wAAkB8xAAAA4BdiYhyzN7p4cQkzQ2XO00/b7sFf0b9/348mN/p+UrFitksAAMhPGAAAAPALns88VYsMjY2VynLMJJQrZ7sHF+h1dc2M8uVPPHv0WPFXn3jCdg4AAPkJAwAAAH7B7PN/q/+MjbXdgb9pqOmh5bkVAACAX+IpAAAAiEhMtGN83saN1aOukTVrbPcgZxi/Z7P0a9QoJTVuUdSL69fb7gEAwCauAAAAQEQ0TLebJx95xHYHcpY+nr1QH+zY0XYHAAD5AQMAAABERDqZmnJ98+a2M5DzzPYWLWw3AACQH3ALAAAgqMXEOCZ9w1VXqaqrVbdutd2D3BFyp3GyV9SoMaO9q+U67NxpuwcAABu4AgAAENziRTxzmzSxnYHclf2Bp2VI46ZNbXcAAGATAwAAQFDTerrTpNWrZ7sDuSzMv0yn8HEGAAQ3BgAAgKBmtpnq8lTdurY7kMsmiphvr7nGdgYAADYxAAAABDXtJKIJVava7kAuW6XPyuxq1WxnAABgEwMAAEDQMkZVqoiYseXK2W5BLhti+sigsmVtZwAAYBNPAQAABKXu3ceMOXQoIsLvP306O9vns92DvBF+n3FkXalS01q4GtXyyBHbPQAA5CWuAAAABKXTF50anNWxWDHbHchbmSEimaFFi9ruAADABgYAAICgVLSBiP9Rv992B/KWf6FIiSF83AEAwYkBAAAgKJ3cUaRCsRrZ2bY7kLeyrxLxP8cAAAAQnBgAAACCUtiuKPeiaw8dko2isoMDYaHX0DiyLjv7yLqr00redPiw7RwAAGxgAAAACEopqbHd1JOZKW+bOHnB67Xdg9xlbtZnNPann9LS2rdX5coPAEBwYgAAAAhuR3WWXPzjj7YzkLs0yvSV6nycAQDBjQEAACComa9MV71682bbHchdZqN+IZ/xcQYABDcGAACAoOZxPFXNHZ99ZrsDucsz1dQzp/k4AwCCGwMAAEBw82ox/eDjj21nIHfpdhFZ9MkntjsAALCJAQAAIKh5r78qPuLRdeukhRSTZT6f7R7ksLMf1/Trrk6LbLFhg+0cAABsYgAAAAhq57bC3y+NpN6KFbZ7kMPamoEy59//Zvs/AAAMAAAA+NkLpon8kJZmOwM5bKFntmnBxxUAABEGAAAAiIiIb7lI5D1LlsgY48jggwdt9+BvesA42uOnn8zSCmei+i5fbjsHAID8gAEAAAAikrbQVfWcOSM3aLrUmzPHdg/+Hp2mR82/Zs9OSY3tpp7MTNs9AADkBwwAAAD4BdMs7Hr/ocmTZZZxtMvJk7Z7cIFulVDtd+rUmdrmYvOPadNs5wAAkJ8wAAAA4BdSUobtKTt83z5ZIyJPzJpluwcX6Fp5TN5KSpo1wdUyb+7dazsHAID8hAEAAAC/IWSPSNbJxEQpbRzJOHzYdg/+QJwUlZ2HDumP5tIzc8aMsZ0DAEB+xAAAAIDfMKO9q+U67N9vfCKSGBdnuwd/4KgZ5Ll32LCk5q5WaH7ggO0cAADyIwYAAAD8joxDV6dFzp4+XVZLVb31449t9+A8dxlHr1y/3jfi6rTS+5OTbecAAJCfqe0AAAAKgu7dHXPoUNWq/pIi2ekbN8ohdSWiVCnbXUHr7CX/2UdD/hmypH79568aUbn0qO++s50FAEB+xgAAAIAL0K2eY3xV27c3L4qYt159VZLUlSjl62le6WYc8RojN4pI97ZtkzNdjVq5eLHtLAAACgJuAQAA4AIkfeFq5LcLFkgPEXmW3QB5rp8nSjOGDOHgDwDAheM7FgAA/A0xKxzjHZyUpGnqyoDYWNs9hdZieUSunjEj+WB8jaj9Tz5pOwcAgIKIKwAAAPgbUpq5Gjmme3dZZhxtMWWK7Z5C5+zBv8IBUz1y31NP2c4BAKAg4woAAAByiDGqsbUck7Fx1Chpoq6pPGSI7aYCJ3CPf1f1690JCcmfxYdEfus4trMAACgMGAAAAJALYrLcwb4OHTroHv8Y2fTCCzJOXfNBiRK2u/KtLRKutY4dM1fpGbOla9eUVCc+qkxamu0sAAAKEwYAAADkopjokVt93rp1NTv7KpM6b56EqSvR9erZ7so3VhpHen32mU4X0XqdOiU1dzVy4Jdf2s4CAKAwYgAAAEAeiIlOTjL+sDDR/U/5pg4erJv9Z+TrYcPkGnUloUgR23155lYJ1X6nTpm6ZphZkZBQ8RqRyD3jx7vqqnqysmznAQBQmDEAAADAgu7exO6+Dpdf7v8sq6e5bfhw2WNqS6XHH5f16kqjkBDbfTlmo6js8PtliYmT6osWeUaKhIQOHjxzpqulS3/7re08AACCCQMAAADygR41Eip576xVK/sf2e9I2V69ZLMs1vcefVRqyxmz9aKLbPf9aWfv5ddvzBBTbd48fysRM3Xq1JQUV8s02LbNdh4AAMGMAQAAAPlQTPTYMT5vqVIe/+nlsvCf/zTRpp90e/BBecncZ565/XbJVFc6hoVZC+wtIfLsmTOmkhkuT/7nP3JEREctXlzkcxFz96uvTmvhalTLI0dsv44AAOD/MQAAAKAA6Wwck2FKly7aTV2/LyPDVsepJON4IiMi5qirEXrokO3XBQAA/DGP7QAAAPDn5ZcDd37pAAAAfx4DAAAAAAAAggADAAAAAAAAggADAAAAAAAAggADAAAAAAAAggADAAAAAAAAggADAAAAAAAAggADAAAAAAAAggADAAAAAAAAggADAAAAAAAAggADAAAAAAAAggADAAAAAAAAggADAAAAAAAAggADAAAAAAAAggADAAAAAAAAggADAAAAAAAAggADAAAAAAAAggADAAAAAAAAggADAAAAAAAAggADAAAAAAAAggADAAAAAAAAggADAAAAAAAAggADAAAAAAAAggADAAAAAAAAggADAAAAAAAAggADAAAAAAAAggADAAAAAAAAggADAAAAAAAAggADAAAAAAAAggADAAAAAAAAggADAAAAAAAAggADAAAAAAAAggADAAAAAAAAggADAAAAAAAAggADAAAAAAAAggADAAAAAAAAggADAAAAAAAAggADAAAAAAAAggADAAAAAAAAggADAAAAAAAAggADAAAAAAAAggADAAAAAAAAggADAAAACpC+H01u9P2kYsXoAAAAF4oBAAAA+ZwxqjHRbrw3vV27ExOOPFw8assW200nRh1eW2LYjh0xex3jeyompl27BQuMCQmx3QUAAP43tR0AAAB+rdvbjklPueMOk64ven6aMEFWy27To359213/U1/jyPGvvpJDIvr5wIHJjVyNvHf5cttZAADg/zEAAAAgH4iJcUz6hquuUldEq4wcKfHqirZrZ7vrr9J5co3etWKFLjEPaMV+/WY2czVi6aZNtrsAAAhmDAAAALAgJtoxR+uXKeP5QPdk1hgxwmyXOaZVjx4SLX5pERpquy/HbBSVHX6/cU2cfjV/vrwRfkX2vkGDUlKG7Sk7fN8+23kAAAQTBgAAAOSBmBjH7I0uXlx3eqKKPvHUU7LWDDA1hw6VTnJaskuWtN2XZwYZRxsfPy6viZiQ557L9BXfbqqMGjVrwqCryrx59KjtPAAACjMGAAAA5ALHOMYYj2dfjMf1edu0kYF+R9ZPmKAT1ZVGV1xhuy+/MH2lpNbbu1dKmr7ygOtm9L46LWLqCy+kpbVvr5qdbbsPAIDChAEAAAA5KHq+Y7x1mjXzNNZZcteECTJavpdh115ru6ugMEOMo5W3bvVMENFLBg5Mmu5qxPalS213AQBQGDAAAADgb+hRI6GS985atbJXZ+2W11y3oC/vy28CywTN057i2r9//+TEuLsjHvriC9tdAAAURAwAAAC4AF0HOCa99SWXhDXXLdrCcWSPqS2VHn9c1qsrjUJCbPcVWmeXCcoSEyfVFy0K7RdWxTN5wIDpLw/fFTF6927beQAAFAQMAAAA+B2/Wt7Xze+Vm4cNk5XqmgMXX2y7L2gVlzC998QJKWeGmsPTpoXXE5Fxo0dPa+FqVMsjR2znAQCQHzEAAADgFwLL+/aPEPFmPPqohIt47hg7Vn5U16ysWNF2H/6HslJcJqWnSyt9XiISEys09G+P7Dd9uquuqicry3YeAAD5AQMAAADkF8v7VorIoxMnSpi6El2vnu0u/EX1pLw22LbNfKY/mY/j4lJSnfioMmlptrMAALCJAQAAICjFznKMd1nt2nKDiHwyfrxMV1d6tmxpuwu5pKxxtNPKlSohL3iKDBiQlBj3ROnFn31mOwsAgLzEAAAAEBS6tUxc6S166aWmb1YFeSYujuV9Qeq8ZYJSQcQTNXBgsroaobt22c4DACA3MQAAABRKHctNmLv/7RIlitc50Se8dM+eLO/DbzpvmaD5tthYXTVmTErq4CGRUYcP284DACAnMQAAABQKv1re95xO9rQbN046yFGzoEIF230oIOYbR+Z4vbLCU1OyExJYJggAKEwYAAAACrRzy/tOi8i4yZN/vqS/bl3bXSgklhlHW2zfbu7xuGbZiBEsEwQAFGQMAAAABUpMjGMOJtavr/8UCTk5caK8pq55+vbbbXchSBQxjpxau1a+CWmq1fr1S14Wtzry1Nq1trMAAPgzGAAAAPK1J6Y4xrvssstCrtYtsmfECJb3IV/oZhzxGiMVRCRy4cLsw6G7Q54ZNOj5q0ZULj3qu+9s5wEA8FsYAAAA8pUeCxxz4LWLLspuJxLSvn9/CRfR+wYOlK7qmtnFitnuA35TbwmRZ8+c0TbSSb9OSvI3LvqyzIiLY5kgACA/YQAAALDKMY4x/tDQfftEMnp37aqbROTAyJHyurpmRvnytvuAvySwTPBGT5TeMmFCeP+IGyMaPPvstBa93lLP6dO28wAAwYkBAADAinPL+4Zpqrz4zDPSXPZKlTp1bHcBuaK7lNPOX39tpusB8+Lw4SmpTnxk1MKFIiKqxtjOAwAEBwYAAIA8EdvVMemtb7hBXhDRIhMnSjd1JblpU9tdgA1mpFSXUuvWeW7yjNZX+vdP+jZuS2THDz+03QUAKNwYAAAAckV3b2J3X4fLL/d/ltXT3DZ8uAyRhXLdE09IfTFSw+Ox3QfkC+ctE/SMFAkJHTx45kxXS5f+9lvbeQCAwoUBAAAgR/xqed98HaVdBg2SNZJlJhUtarsPKBDOWyZ4couppK86zhx1NUIPHbKdBwAo2BgAAAD+kpjo5CTjDwsTd29sRu8uXbSLTpLshASpLMdMQrlytvuAQqGFFJNlPp9M0XFac/x4lgkCAP4OBgAAgAsSW9p9LaNz69bmU5Nuyk+erOPloBlUvbrtLiAYmP7GkXW7d+scEXNTXFxyoqtREfPmibBMEADwxxgAAAB+V3Svkd3TFzZo4Cniv01XTZwoR2SrxDdpYrsLgIislqp668cf6yrPQC3Rv39Subj9ERvWrLGdBQDInxgAAAD+S0y0Y3zeSpXkARF5IzFRK4qYWx99VJLUlSjl6waQj5kpcqMMXbpUeoUcDj3Zp09KyoiHSs395hvbXQCA/IE3cgAQ5Lp3HzPm0KGICH+lU4OzGw8aJJfrKL2hd2+W9wEFWJhxZF5mptyvW6TI7Nln1offEd5w+PDZw4b+dHH9gwdt5wEA7GAAAABB5lfL+4qKmFOJiTJEXRlbtqztPgC5YIdxZF1GhognSsuMG3dqpd97+MYpU+aoq1X01CnbeQCAvMEAAACCRGB5nzj+9n595hnZpq5MqlbNdhcAC6pKhHyzZ48cNb1M9REjWCYIAMGBAQAAFFIx0SPbeB9r2FAf8LeVWydOlH/Jdrm/cWPbXQDyoUTjaJsNG+ReEb25f//kta5GjF692nYWACBnMQAAgELiyYcTK2cMveKKzEczvzPVEhJY3gfgrwosE9TPQ/7j3/L008mNRkwou2bHDttdAIC/hzeEAFBAPT7JMYc/iowMPSOSFTNwoCwRkSZ9+sg16kpCkSK2+wAUAuctE9RsUzuz6ogRSc1drdD8wAHbeQCAC8MAAAAKiHZtHWP84eGR/T01fZO6d5fLTVdpEh8vI+WUVC9d2nYfgCCwRcK11rFjstoMMT9NmnRKRI7I2LEsEwSAgoEBAADkY8aoxkS78T5v27a6xETJ+LFj5X7xyqCqVW23AYAsNI4c+f57s1lEJycmVqwoEjH1+edddVXV77edBwD4bwwAACCf6V7dMd5ljRr5i4uITJwoN6krjW65xXYXAPwhlcra45NPZKbpnP3qgAHJ6mpZff9921kAgJ8xAAAAy6IvdszB9Vde6flaxFMtMVHi1RVt1852FwD8XTpPrtG7VqyQ180D0qFv36TmrkYO/PJL210AEKwYAABAHnty/egVR0ZFRWW9d/rOzFcGDJD7NFEe6NtXpki29AkPt90HADkuVTyyPCtL3pE2cmzWrOw+Ye9m1YiLe/7LYX3KN/vpJ9t5ABAsGAAAQC771fK+1/3b5QHXlUPqSkSpUrb7ACDPnbdMsPjaUjedmDxu3DM3P73u8n4nT9rOA4DCigEAAOQwxzjGGI/npxTPY953H3nEDPW/qDVGjZK26krJyy+33Ycg00Su0BkbN+rL0saMeucdqaAtdcquXef+//1mmeldubLZbi6WNs2by53qytTrrrOdjSBzdpmgjvY8ZnYMG1Y+xv9i1D/mz2eZIADkLAYAAJBDur3tmPSUO+4w6fqi56cJE2S17DY96te33YUg00Wu1TLvvON51NxnljrOzJ2uRrVct+7P/uexLUc28RW96SYZ4X9aTsfHy2z53KTfdZftXxaCTGBwVcY85i8/YEBSc1fLxLz3nu0sACjoGAAAwF/UPTyheXrrmjX9u7Pe0tkJCSzvgw1miHG08tatMsrjmu8cJyXViY8qk5aWUz9+9HzHeOs0a+ZZKSKPTpwoYepKdL16tn/dCC6BZYK6xDygFfv1m9nM1YilmzbZ7gKAgoYBAAD8STHRjjlav0wZzwe6J7PGiBFmu8wxrXr0kGjxS4vQUNt9CA6mr5TUenv3SknTVx5w3YzeV6dFTH3hhbS09u1Vs7Nz6+cN3NqyL8bj+rxt2shAvyPrJ0zQiepKoyuusP26IEhsFJUdfr9xTZx+NX9+6DGRrIsGDpzR3tVyHfbvt50HAPkdAwAA+B9iYhyzN7p4cd3piSr6xFNPyVozwNQcOlQ6yWnJLlnSdh+CRHEJ03tPnJByZqg5PG1apq/4dlNl1KhZEwZdVebNo0dtZfH5gXxhkHG08fHj8pqICXnuufzy+QEA+RUDAAA46/zvcGq6iZSl48dLOfFJ68qVbfchSJz3HU55I/yK7H2DBqWkDNtTdvi+fbbz/heukEG+8INx9NIffzSpIhI9cmReXSEDAAUFAwAAQS+2lrs//Yc775RMf3kdNGECW9BhQ+AeZ/O0p7j2798/OTHu7oiHvvjCdtdfFRPjmPQNV12lrohWGTmSHRmw4rhUlOJbtpjieqmeHDgwJcVpFRm5bJntLACwhQEAgKDDwQT5QpAdTBi0IT8obIM2ALhQDAAAFHpcmox8gUuTRYRbbZBPFNBbbQDg72IAAKDQYTkZ8gWWk/0pfL4iXzhv2WZ4PREZN3r0tBauRrU8csR2HgDkFAYAAAq8wHcU948Q8WY8+qiEi3juGDtWflTXrKxY0XYfggSPJ8sRXLGDfKGsFJdJ6enSSp+XiMRE36RaiZH9n3su2K7YAVD4MAAAUGBFz3eMt06zZp6VIvLoxIkSpq5E16tnuwvBJXBPsS4xD2jFfv1mNnM1YummTba7Covu4QnN01vXrOnfnfWWzk5IYGcHbDBDjKOVt26VUR7XfOc4KalOfFSZtDTbXQBwoRgAACgwYmc5xrusdm3zsP5blowbp73lYxndqpXtLgSZvsaR4199JYdE9POBA5MbuRp57/LltrOCRbe3HZOecscdJl1f9Pw0YYKslt2mR/36trsQZMoaRzutXOnfJqJL+/dPXehqhH7+ue0sAPgjDAAA5FtdBzgmvfUll4Q11y3awnFkj6ktlR5/XNarK41CQmz3IUg8JKUk/IcfzJWmjw5NSAjW5X35kTGqMdFuvM/btq0+7ndk9rhxMltd6Vqliu02BImzt/7IEhMn1RctCu0XVsUzecCA6S8P3xUxevdu23kAcD4GAADyjY7lJszd/3aJEsXrnOgTXrpnT+nm98rNw4bJSnXNgYsvtt2HILFFwrXWsWOy2gwxP02aVHxtqZtOTB437pmbn153eb+TJ23n4be1a+sY4w8Pj+zvqemb1L27vO7fLg+4rhxSVyJKlbLdhyDBMkEA+RwDAADW/Gp533M62dNu3DjpIEfNggoVbPchSKSKR5ZnZck70kaOzZqV3Sfs3awacXHPfzmsT/lmP/1kOw9/zZPrR684MioqKuu903dmvjJggNynifJA374yRbKlT3i47T4EifOWCVZo6N8e2W/6dFddVU9Wlu08AMGHAQCAPBc9fWSRjPeaNvWs9U/13zRjhpSQfXKidm3bXQgy3xpHX/jXvzyrQu/2rxk0aOaZEW+XeXP7dttZyB3nlgk2zXrLc+u4cVJVXfP4fffZ7kKQOS4VpfiWLf6bPL08a3v0SH0y7nTEHatW2c4CEDwYAADIE8aodivtFvM1GzrUTPafkKddl3v5kacSjaNtNmzwLwgpqnEDBgTrG+/oXiO7py9s0CDw96lT42aWabthg+2uPH8dAoPI9tmnzMgJE2S4umbR/78uQK5qaBxZl51trheR2Li4lHquRv0werTtLACFHwMAALmuWwO3ive7vn1NfdNZSk6ebLsHQeK85X0VK4pETH3+eVddVfX7beflle7exO6+Dpdf7v8sq6e5bfhwGSIL5bonnpAUEyeRqlJBRCIXLvSMFAkJHTx45kxXS5f+9lvb3Xnpv5YJLjFRMn7sWLlfvDKoalXbbQgOxm8c6de7d0qqq1EvTp1quwdA4cUAAECuiW7rmAxz7bWeCiL+KR9/LJnqSsewMNtdKKTipKjsPHRIbzWD9OsxY05+I3L40alT56irVfTUKdt5eaXHAscceO2ii7LbiYS0799f5uso7TJokKyRLDOpaNH/+R/2lhB59swZbSOd9OukpJNbTCV91XHmqKsReuiQ7V9XXulsHPOdKVq0WDWRUi/16mXW6Dhz5ZAhMlJOSfXSpW33oZAKM47My8yU0iFve8o3aJCcGHd3xENffGE7C0DhwwAAQK6JWe4Y3wtz5+q/1DX3d+xouweFTOAN8/26RYrMnq3ZpnZm1REjkpq7WqH5gQO28/JKTHRykvGHhYm7Nzajd5cu2kUnSXZCglSWYyahXLm//AO3kGKyzOeTKTpOa44fH94/4saIBs8+O61Fr7fUc/q07V93Xnl8kmMOfxQZGXpGJCtm4EBZIiJN+vSRa9SVhCJFbPehkEkyjg6eMydZXY1Mfewx2zkACh8GAAByXEyMY/ZGFy+uTXRU0Uyv9w+/8whciGuksd6/eLFcH/J2tgwenNxoxISya3bssJ2V12JLu69ldG7d2nxq0k35yZN1vBw0g6pXz62fz/Q3jqzbvVvniJib4uKSE12Nipg3T0RE1Rjbr0deiV2XMODgrTVqyKfZzUNk7FjZJB+YNx580HYXColbJVT7nTpVvGrJpcfrRkby+FEAOY0BAIAcFxM9cqvPW7euevyvGdm0yXYPCrizy/vkXhG9uX//5LWuRoxevdp2Vl4LLO/zFPHfpqsmTpQjslXimzSxFrRaquqtH3+sqzwDtUT//knl4vZHbFizxvbrlNdioke28T7WsKE+4G8rt06cKP+S7XJ/48a2u1Cw+Td6hmiDOnVSN8QVifz2q69s9wAoPBgAAMhx3Z50TEbNVq1Mlrr+j95803YPCpguxpFZ331nbvAM0U+GDEkJdcZGvLpggUhwfac5JtoxPm+lSvKAiLyRmKgVRcytjz4qSepKlOa7r99mitwoQ5cuDV1i7sm+o2/fGe1dLddh507bXXn6GhjVmCx3cMY/27fXT/xjzA1jxshsdaVrlSq221CwGKM3qLZqlZLitIqMXLbMdg+AwiPfvYEAUPDFhjnGe+eDD0pXdWXBokW2e5DP7TCOrMvIEPFEaZlx406t9HsP3zhlSrAt7+vefcyYQ4ciIvyVTg3ObjxokFyuo/SG3r0L3C005+1mOLM+/I7whsOHzx429KeL6x88aDsvr/xqN0NREXMqMVGGqCtjy5a13Yd8bpZxpH2bNsmZrkatXLzYdg6AwoMBAIAcxwAAv4vlfSISRAdEBjwi8hsDHpYJ4vcwAACQSzy2AwAAwSFwiXhIE5HsirVrJzeLvzqqe2xssB38A8v7tPbeWF/XrVvVVdfEJycXuoN/QA11pVFEhNQwvUz1sWOLlhEpuevrr2OHOybd16mTyM+XztvOzG0zZw4ZUrp0RkbyEFejvhw82NQR0YQrrzT3GUffmDdPuhlHvMFziwsAwA4GAACA3BFYEpfgSfLc3aRJStH4FlHJrVsH273hgSVxscvjX/G+sGaNdDBb/ZOXLJFt6sqkatVs9+W5tupKycsvl4PqqpkzJ/agYzJuX78+evrIIhnvNW1qOy+vpKS6Ghm1Z09KC1cjH+/USYeLyDWNGpnRxpGk4FumCADIG6G2AwAAhURViZBv9uyRo6aXqT5iRPJWVyO/mjdPygXX8r5zj4m7Imu85/VRo2R/toivbdv8urzPuuHqmkUNGnjEP8TI++93Kx5/je/6FSuyr/a0lIw+fYJlC3rSMlejTn38sUSJyLAmTWJLu69lfJ13j3kEAAQHrgAAAPw1LaSYLPP5ZIdO1Z2DB4fXjfx35A1XXpmc6GqZyLlzRYLj4P/4JMcc/igyMnaMY7x1xo6VvlnjPXU3b5Z4dUXbtePgf2FMR9lk3mnWzNMwO9z0+uyz2BXxX3lnJic/UWfUsz+tKF/edl9eST7kdIiY8+abMrZiSMTY2rWNYxyNj42VXXKRjgieW2YAADmLAQAA4M8JLO9rJ+1kQUrKmS/DJ4fXueqq5PccX2TDceOmtej1lnpOn7admdvatXWM8YeHx65zr/RO6N079J86Livkm29kl7qyatAglrrlkEx1pWNYmKRJmrSPiQmJyDwR9vDOnbHGMV4TH9/3o8mNvp9UrJjtzNyWkhrbTT2ZmSmXuBo5LSXFU7VIpmf0VVdJZeNI03Hj5FYJ1X7Bs0wRAPD3MAAAAPy2wFKyeOOISUszZ0JfDd1Yq1ZgeV8wPdbNGNWYaDfem96uXeQafc43eOtWmW0elq7PPisj5ZRUL13admOhV1vOmK0XXSTd1BWf45w4c6RD8Zivv47Z6xjfUzExjnGMMZ5C/77m/GWCnntCf5STV14ZGMzJRlHZ4ffb7gQA5E+F/gslAOAC3WUcvXL9ejNDRKOaNEmu6GpUmfbtU1JGPFRq7jff2M7LK7EtRzbxFb3pptjj8fN9Gz/4QD1GRBcskPvFK4OqVrXdF/RekcNy5rLLAk9R2LdPJKPXxx/HxLgn01vffrvtvLwyM2r4zMjXvv8+MJjz3+TZb35o1EiSjCOxq1bZ7gMA5C8MAAAg2GUYR/vv2GH8KmLat09u42pE+k03/byl/IMPbOflle7hCc3TW9esGbvPMd70BQvkMv8d5sePPpKnZYdUvvlm2334fT8PAq6/XtWM0xffe69b8fjFvuvffTcmeuRWn7duXdt9eSV1atzMMm03bEhWV6MW3nabv4lxpOk//iF9jSPHC/8yRQDA72MAAADB5vzlfY9F3RPxQt26KalOfFSZtDSR4Fje9+T60SuOjIqKCizv83+e3Viv3bTp3PI+FGiBZYL6gj/NLN+4MbBMsMcCxxx4rUIF2315JfURV6O+XLHCTLokOfKy6647t0zwAeNoj59+st0HAMhbbCUGkONiwxzjvfPBB6WrurJg0SLbPUGvt4TIs2fOaBvppF8nJZ3cYirpq44zR12N0EOHbOfllcDSuBPDj35donGvXtLA7zVRQ4bIIXUlolQp233II4OMo42PH5fXREzIc8+FVBPJHpGYOKO9q+U6HDtmOy+v/DwIueii7HYiIe3795dwEb1v4EDpqq6ZXfiXK+Z7s4wj7du0Sc50NWrl4sW2cwAUHgwAAOQ4BgCWBZb3VRCRyIULPSNFQkIHD54509XSpb/91nZeXgos7/N527bVdBMpS8ePl3Lik9aVK9tuQz7xg3H00h9/NKkiEj1yZEbvq9Mipr7wQlpa+/aq2dm28/LKE1Mc41122WUhV+sW2TNihAyRhXLdE09IfTFSo/AvV8x3GAAAyCX8gQ4AhYQZKdWl1Lp1/mUiOqJx48DyvmA7+MfWcven/3DnnbHVHeN79NNPzy3v4+CP33KZuubHSy8NLBOMLLIlw3dq06aYGHepz9eype28vPJ8b1ejWv7wQ2CZoOcGj/qr3XijfCJX6/z337fdBwDIGQwAAKCg6i7ltPPXXweW96WUj380KvSmm1KHuxr52kcf2c7LKzExjknfcNVV55b3NTFJWmzFCrlTXZl63XW2+1DAlJB9cqJ2bVXziTFLlwaWCXZf4ZiMVtdcYzsvr8ycGRdXtuynnyZ/Gt8ustftt59bJtjQOLJu82bbfQCAvybUdgAA4E/aYRxZl5GhxUSkTVxc+XoiESeSktzUeFVPVpbtvLwSE+2Yo/XLlPF8oHsya4wYYZ6XBLOtRw9R8UvVUL6uIUcFlgmaIbrZ7Pjss5jljvE9MH++vBF+Rfa+QYNSUobtKTt83z7bnbktsEzQMY4x99Svv/9m4xyqGBMj5UT898bHyxB1ZWzZsrY7AQC/jzdKAJDfnb0EV0eLnKnZoUNSc1crnDpwQFSC4jqumBjH7I0uXlx3eqKKPvHUU/KSGXum5tChppOcluySJaWJ7UIEhbP3wuu/1DU1OnaUwWd2hzR+8MHYKo546zz3XKav+HZTZdSoWRMGXVXmzaNHbefmFlfdXwwcZ8zo3n3MmEMTXnkle9IpJ/vUK69oP3UlrHlz250AgN8WBG8dAaCA6iLXapl33jn1iWl7+Kl77klq7mqF5gcO2M7KbY5xjDEeT0y0G+9Nb9dOBogUuX/LFqlhepnqY8dK4OAP2DROXfNBiRKyS11ZNWhQ6OMnl3s+27YtZq9jfE/FxLRrt2CBMSEhtjNz28yZQ4aULp2RUbGESGS5Vq1kk3G07rvv2u4CAPw2BgAAkN/MN47M8XpD9pj7sl7t3HmOulpFT52ynZXbouc7xlunWbP9e3SWr9//L+/TiepKoyuusN0H/B59Ro6YLy65JLBMMGLCV+0ySm7efG6QVcgFrgzIaisSsvCf/5QWUkyW+Xy2uwAA/40BAADkM1pORMuOH//zc8n377fdk1t61Eio5L2zVq2YU/HLvbFvvulZra6sevddGS3fy7Brr7XdB/wdOkZds6tWrcAgK7BMMLqtYzJM4f39/UI/V0vd7PPJFB2nNcePt90DAPhvDAAAIL9oaBxZl53tbxZ+RfbuefNs5+S0rgMck976kktiV8R/5Z2ZnJw9JGu3PL15s/aWj2V0q1a2+4DcFFgm6NmtI/3rP/008NSKJx9OrJwxtPBd4ZJ9n99r0ufPl27GEa8xtnsAAD9jAAAA+UVtEdmyZ09h2SresdyEufvfLlEi9g430rd+0KCwBiKe5du2SZqkSfuYGFmvrjQq/PdIA//l7DJBiVdXtF27rPJZ0WbVli2xYxzjrTN27FPLHeNdVvB3XDzf29Wolj/8IO+LyOhvv7XdAwD4GU8BKORiYkZVOphYsWJIyJndYT2LFTP3i/hTihfXN0ISsrsUKaK3Z48w7x0+nPWuSLFxhw5VTBG56JNDh/57yy+APNFQRNbv2WM74++KiXaMd9ldd2na8ck6fs4cqSG9zIIKFWSlulLoVxgCF+iEZJolxYvLLnVFBg06M04u1vadO//8edS5c0qqq1Et33nHduZf9pIu1Prffy83iBipVs12DhBsjFHtscAxBxeUL2/+IxLevHhxkZCEzMyIiHP/0gv6oXY9duzE6ay3Qpb89NMcdTVCDx2y3Y7cwQCggAk8DsvUCyla7KEGDTxlTZHsG2++WVL9hz0zGjY0qSKScOWV+oGOkjZVqsiazCzTvWhRv1/d7GwRWSwij4sY8f98+cdKdaWZiHpEzjQT2T/bOL5/Z2fHfBM/3Tfwu+/0ddPDbNm61dwqok02bdIKnh1m/6pVZpS/xumjH36YkuLqJaknTth+XYBCYZS+KcNOnhQRkYW2Y/66iikikS1WrNhf3jztvWnQIAkX8dwxdqz8qK5ZWbGi7T4gXyorxWVSerq8pcnm7rFjKzY0T0fe8957kmo77G96QIqYW0+dku9thwCFR+AKu2L3n4gMb3DbbZ5T/pbSoWFDf4r+21S97jqdIjvk8Wuuke9NL9+UihWzV6ob0jEsTEQkO1tExC+eX14H3kVukhdFinZT1+8Tid0Sn+AdceaMnJEo/WzXLhkmtWTFpk3SxtxmFm3ebNZ5TpmkNWuK3B/xQNS/PvpoWoteb6nn9Gnbrwv+HLUdgN8W+MQuPvDEp+Eh994rxUxrcdu2lT7mTom45x7pqq6ZXayYtcDeEiLPnjljKpnh8uR//qNjRUz4yy9nni6+XTq//nphfw4yfl9smGO8dz74oHRVVxYsWmS7p8C4XOrLnrfeSh4ef2/UdffcYzsnp5z786zOiT7hpXv2lG5+r9w8bJisVNccuPhi232AFcUlTO89cULKmaHm8LRp4fVEZNzo0dNauBrV8sgR23k5JTYxfon3s3//W76XjVLp7rtt9xQYs4wj7du0Sc50NWrl4sW2c2BH1wHjtqW3vvji0EMnano+6tBBvxSRIu3bi4iY+5s0kWvUlYQiRawFDjKONj5+XBaLmGrvvad1RbTJyy+fvEvk8IA33giWpxgVNFwBkE8ElgBlrcva4L+kZ09Zc/wFKf3EEzJSIkz10qVF5AN5Q0S66ge2W0VEZIpkS5/wcBV1RZo3FxFR07x52KATju6cMSO2jWN8S1580TNHxNNk8uSZM10tXZp7AIFgNO/AgE4Vmh8/Lu+JiIwb1/V6R9Jbz5sX1k7a6QLHkT2mtlR6/HF2AqBQ2ygqO/x+WWLipPqiRaH9wqpo0wEDpj8zfFjk6N27RUSkpe1IADbFrksYcPDWGjW0WXZHz8yBA826k4v1jn/+U2rrGfP1RRfJNbYLzzNOXfNBiRI//03r1maHiJHWrYvWkaIlPz50KPYyx/gazpmTPUDExE2ceG43CKxiCaAl3d52zP63y5XrdoljvDfNmJH1alZXf62dO+UfMl0e6t9fRsop+fngX7AE/iCYra655ckn/cmakP3m9u2xD8dv8Llz5nRrmbjSW/TSS21nArBn1gRXy7y5d29ys/iro7rHxoaMCb1CJteta6bIjTJ06VLbfUCOKmsc7bRypf8KE+dpeP31yRVdjSrTvv30l4fviggc/AEEpSe2Jew6NKxKldhX4td5r5w3T7ZkjfcM3rrVPCKLpeITT0htOWO2XnSR7c4LFjjHtFTXLO/dO+RVEVm2c2fMCsd4ByclPVFn1LM/rShf3nZmsGIAkEcc4xhjPJ7Ylo7xFX36aXO/jg1ruGOHaa2uLO3eXaLFLy1CC98VGYFf18WyzPTs1MlMy7xDq2zfHnuTY7w9hg9v19Yxxh8ebjsTgD0zdozYE7Vy69aUovEtopJbt/Y3MY40/cc/JNM4kvrFF7b7gAtST8prg23bjF9FTPv2yYmuRi5r1ix1oasR+vnntvMA2BN439uttFvMe+ewYSF1s67wb/7qK3lf3pK1jz5aaK+EO3urgqapKwNiY0NanukdWnn79phox3gf69XLMY4x/kJ4DsqnGADksh4LHHPgterV99cT8S1fvVouU9f8OGmSdJLTkl3wH/NzwQJXCFyjriQkJEQ+oC9mjFq7tkeNhEreO2vVsp0HwL7UR1yN+nLFigoviEQOql9fyhrHaOfOcqlx9M6C/3hEFDKB5X1d9GWZ1adPhe6mW8TOunVTUp34qDJpabbzANgX3WDkaV/Vq6+O/ERTfRs//dR0MINkQWKi9Z1ethxSVyJKlVKPujJpypT9J/Rl32erVgVuibadV9gxAMgl3cMdk9763nuzRST04Y0b5SZ1pdEtt9juyndWy27To3797F1Zu7XEp5/GDndMuq9TJ9tZAOxz1VVVvz850dUykXPnmh9ETjWoXl126FTdOXiw3GkcLceyUeSxwPK+ysaRpuPGhd9sBsgt1aolN3K+jhowZQqP0QUQENvLbeH98fHHPY39E6Xixx9Lc9krVerUsd2V7zwtO6TyzTdnTcjq5r/v889jYhyTvuH++21nFVYMAHJY7AK3ZPqxIUP89XSkDnv9dbZc/0mBCehBddXMmROz3jG+8YmJIj8/v9R2HgD7Ao8dTX7P8UU2HDcuc4OIv8VVV0k7aScLUlKkoXFk3c8POAJyTGB5X7xxxKSlhf4UmqpNa9dOHuJq1JeDBxe2rf0A/h5jVGM+jPd57xs3Tk6bG6Xo88/LCck0S4oXt92W753dHaCf6UjNXrSoWwO3ive7vn1tZxU2DABySGzV+IPe5yZMkJXmaT09erTUFyM1PLy+f5HOUtc8PmxYbPH4TzNazJoV2KFguwtA/sEyQeQqlvcB+JPatVuwwJiQkNgwx/iazZunc2WqzBo40HZXgXX2HGXqm85ScvLkc+cs5AgOVH9T7PD4fd6tkyad296PnNVR3jQvPfbYTxfrZt9XyckiXBEA4LexTBB/C8v7APwFxqhGLviqXUbMCy9IV3VlwSOP2G4qdM6es2JrOcb36ejRtnMKOgYAf1FMjHuZ79p+/eSgJEu5p5+23VPYBR6HErvbMb5+48bZ7gGQ/7FMEL+L5X0A/qbYyxyT0eiZZ6SbumZs5862ewq9JuqaykOGxGxxy/tGDBhgO6egYgBwgWIvc4yv4d13ayP/92YUB9E8N1pdGTZgQLfhjvEu69rVdg6A/I9lghARlvcByDExxxyT0erRRwPPubfdE2y0s+lhWo4dGxPjLvX5Wra03VPQMAD4k2KiHePzVqokj4iY+a++Wmif01lAmKt0lKZNnx47fORbGa/Uq2e7B0DBwTLBIMHyPgA5rNvwkc8fevC66/QNHWXKpKba7glaZ3cE6E5/S7N23rwntiXsOjSsShXbWQUFA4A/EFg+pw+JyOQXXww8t9J2V9BbI1lmUtGiJtb/g//U3Lnt2jrG+MPDbWcBBVngOcXR00cWyXivaVPbPXnl/GWCnkoinpn160sXuVbLvPOO7T5coLMfN88YE+dJvO66YF3eF/g8Dnxe2+4BCrLA+0zzkt+fPXTu3MD7UNtdQa+GutIoIiLkkewN/vKzZomwK+zPYADwB/av99T0TXzqKXlNXfP07bfb7sF/00T5Qe695prIb9SfUX3YMNs9QEHm2ZcdLmUvv9yzyT/EX+/997sVj1/su/7dd2OiR271eevWtd2XV2Y2czVi6aZNyY3i7480zZuzTDB/M0OMo5W3bj23vO/sxy3wcbTdl1eiL3bMwfVXXhm7zzHe9AULAp/Hgc9r231AQRZVXCSj+fDh0lz2SpU6dWz34Dw3yFfmkdtui93mmEMVune3nZPfMQD4H55cP3rFkVFRUTLUv11qO47tHvyBfjJGmgwc+OTDiZUzhl5xhe0coDAwHWWTeadZM33Bn2aWb9wYuyL+K+/M5OQeCxxz4LUKFWz35RWWCeYz5y3vyxhwdVrEkeBb3hd4nxI7xjHeOmPHetZromfp5s0Sr65ou3a2+4DCICYm4ZXDnapVM4M10TQaNMh2D/5ADxH/rMTExyc55vBHkZG2c/IrBgD/Q+aJM1WzSsXHBy4tsd2DP3D2UqzMRzO/M9USEmznAIVKtPilRWiopEmatI+Jyb5BJDR+585Y4xiviY/v+9HkRt9PKlbMdmZuY5mgJX+wvC8trX171cK/syFwCXLsOvdK74TevbMWn74zs8M338gudWXVoEEyRbKlD7fCATlJJ2VfkeUZOZLPrwLi7LktbJFIVsbQobZz8isGAOeJiRlV6WBixYo61FQxW6KjbffgwqijI83VjzwSO8sx3mW1a9vuAQqlceqaD0qUkG7qis9xTow6vLbEsB07YvY6xvdUTEy7dgsWGFP4l6SyTDCXsLzvHGNUY6LdeG96u3aR2TrNN3f7dpltHpauzz7LTiIg93R72zG+8XXqyB3yrnT75z9t9+DCGCMiy3r2DJzrbPfkNwwAzuP5MfNLT2KvXnKNupJQpIjtHlygs1tB5RPdLvOeesp2DhAULlPX/Hjppeqqa+KTkyMTvmrn+/6LL2LXOca3pEUL23l55fxlgiFjQq+QyXXrmilyowxdutR2X36n8+QavWvFCv8VJs7T8Prrg3V5X7e3HZOecscdsfPjZ2ckfvKJeoyILlgg5cQnrStXtt0HBIU2utm06N373PtKFCxnz3G6IfO7kFndutnOyW/4DX1WZ+OY70zRouakuVgWxcba7sHf1N/U1C86duxsHJNhSpe2nQMElWfUlRJXXy2z1TW3LFsWWCbYfYVjMlpdc43tvLwyY8eIPVErt25NKRrfIiq5dWuWCf6385f3JZ2IfzDy03/8I3WhqxH6+ee2+/JKTIxj0jdcdVVgeZ9ZrK62WblSVstu06N+fdt9QDDp3n3MmEOHIiJMtLypsQ8/bLsHf1M5eUbu7tYtcM6znZNfMAA4q1grz/SSxe65h3v+C4mzlygXe8LTxKR06GA7BwhmgWWC/iE60j/8s89iljvG98LcucF2aV7QLxNkeZ+IiMREO+Zo/TJlutWK3+3rMGWKPq8Juo3lfUB+4O99arCp+dBDckIyzZLixW334G+qLMdMQrlyRWJFLv7k7rtt5+QXDADOMs/7n5QfHnrIdgdyln+Kf7W574EHbHcAkHO36Oi/1DX3d+yog8/sDpm/Y0dgi3nXAeO2pbe++GLbmbktaJYJsrxPRH7+Dv/e6OLFY+9wI33rBw3Sl3Tsmfe++cY0kdlmRq9e55ZsArBO6+vr5jLeNxY2OknX6nQGrAFBPwCIiU5OMv6wMGmvY7T2PffY7kHO0j2aKNNvv51bAYB8KLBM8OwW89DHTy73fLZtG8sEC+gyQZb3iYiIYxxjjMcTWN4nA0SK3L9li9QwvUz1sWOlk5yW7JIlbXcC+H+B94mmq3nAdGza1HYPclg5WSXPtmp17twX5NR2gG2xLUc28RW96Sa5zH+H+fGjj2z3AAhil0t92fPWW8nD4++Nui7vB5KxlznG1/Duu6Wlumb5v/9t++UI3CPumSCilwwcmDTd1YjtwbdMr0eNhEreO2vVytqcnSTVx4/X3vKxjG7VynZXQGB5X3YL84B+MmBAsN3DHxA93zHeOs2aeRrrLLlrwgQZLd/LsGuvtd0ly4yjLe65J/kHVyPXv/VWXv/0sYnxS7yf/fvf8r1slEpcggvAHv3BOHJpw4ZJy1yNOvXxx7Z7bAn6KwDkpPlSVjVpYjsDAPDfdIy6ZletWiZLXf9Hb74ZWCYYO3zkWxmv1Ktnuy+v5Ldlgizv+1lgMBNY3udZra6sevfdfHPwBwD8F/+lnsv1qltvtd1hGwOAR/1ek37ddbYzAAC/L7BMUN72r/dX2bgxcPB68uHEyhlDr7jCdl9eyfNlgizvExGRrgMck976kktiV8R/5Z2ZnJw9JGu3PM3yPgAoKLSR/3szqkED2x22MQAYLSIvX3ml7QwAwJ8UeC7z2YNXVvmsaLNqy5bAMsGnljvGu6zw32P9h8sE50oRCfkL99yzvE9Efr28L6yBiGf5tm2SJmnSPiZG1qsrjQr/jgoAKDQ+1jk6t1o12xm2MQCoqGP03Ro1bGcAAP6iwOOazi4TPPORTpAPv/kmdp17pXdC796OcYzxF/4t679aJtjTDDYda9X6w2WC5y3vM8fMUFlSq1awLu+LHe6YdF+nTnqZSNENO3eeW963Ul1zoPA/pQIACq0Rst88Xb267QzbgnYAEJjsS205Y7ZedJHtHgBADjkoJ6RfmTIy2zwsXZ99dv92Ed8Pn38evcR93zcweJ72MmuCq2Xe3Ls3uVn81VHdY2PN2pBt2ui668wk40jm22+f++u1nvZa49prkyu6GlWmffuUVFcjo/bssd2fVwK/L/ZvF/F9v2mTHFRXzZw58qO6ZmXFirb7AAA5ZKSckuqlS587BwapQv8dkf8t/IqwK0qVEsnsarsEAJCLnlFXSlx9tUeMmEHLl8cOd4zvq5UrVUJe8BQZMCApMe6J0os/+8x2Zm5LSY2rFRm1ebOkiogE7zb22FmO8S6rXVtuEJFPxo+X6cY1PVu2lGX6vu02AEDuy7yiSIWLu5coISIiqSdO2O7Ja0F7BYB29XeQt/nOPwAEnYPqmrl33mnaZD+ePfbTTwPLBGONYzJM5cq285CzurVMXOkteumlgeV9P//TTZtkurrSs2VL230AgLxV9IfT+7OrBu8tXUE7APDMyRof9mbhX2IEAPgfktSVKNVzW9zDRcx9/79MMCZ67Bift1Qp25m4MB3LTZi7/+0SJQLL+8yRrPVakuV9AICfZfYO3S0TjLHdYUvQDgAy14RPOf3J8eO2OwAA+URXdc3sYsUCywT1lZODzZzgWyZY0Jy/vK/4meMHw8f/Ynkfu34AAL+QvSikYUibY8dsd9gStAOA0wfCI0128H7gAQB/4BF1pXNU1LllgpeLZNz05Zcx0W68N53nvtsWPd8x3jrNmu2fLeJb/vnn55b3dZCjZkGFCrb7AAD5U9ju0/uPzgzebwQH7QBg3oEBnSo0P35cdhhH1mVk2O4BAORzLdU1y2vWVI8R0QULYns5xvvjRx9FJzrG1+Hmm23nFXbdu48cefDg9dfHvucY37D33vOsVldWvfvuz5f0161ruw8AkM/FSVHZeehQ4LG5tnNsCdoBQIB5SUTf+vZb2x0AgALmtLpS9KabPC1FTMIHHwSWCT6xLWHXoWFVqtjOK+iemOIY77LLLgss7/M3yB7h+Xj9enlNXfP07bfb7gMAFDAJUkEn79xpO8O2oB8A6Fsi5m5+IwAA/qLzlgmG+LPnZXu2betWK363r8OUKZ2NYzJM6dK2M/O7Hgscc+C1iy6KNY7xmvj4kP4imvz11yzvAwDkBNNKqpk7OPcF/QBALhHRuZ98YjsDAFBITJFs6RMebprIbDOjV6+iS3S8f9433wS20j+1fOrdxl+kiO1M22Kik5OMPywsZq9jfE/FxGSXFAldvHOndFNXfI5zbikjAAA5QGeaxtp7wwbbHbYF/QDALAppa4qtWWO7AwBQSC2Xk9IyMjKwlf7MJb57M+7dtOmXywSNUbWdmVcCy/v03X0e38aNG9VV18QnJ8vr6poZ5cvb7gMAFE7+aiE9/C9x7uNxRlL+H5GzNm6ULft8GRWOHeNxQYVMmHFkXmbmqWkint7lys1RVyP00CHbWYVdbJhjvHc++KB0VVcWLFpkuwfIV2bKATPnyivVY0RkwYKYn+Jf8mWvW+e5yTPaN69//6Rv47ZEdvzwQ9uZOSW2q2PSW99wg7wgokUmTpRu6kpy06bS3HYZkI/NMo60b9MmOdPVqJWLF9vOKewCt2oVfUrEP+XAAclUVzqGhdnuQg6ZK0Uk5MgRfbR8vagHP//cdo5tQX8FQEpqbDf1ZGaaQXKrSVi61HYPcpbO0td13qpVHPwB5FcaJzvlcKNGZlH2V6bhmjWBZYLduzvm0KGqVW33Xaju3sTuvg6XXx5Y3iebdaQOW7/+3MEfAPKZc+8TH9V/ad///Md2D3LYLLldblyyJHDus51jW9APAAI8M/UL6b1gge0O5Cyz0TygP7z+uu0OAPhD5y0T9D+lidmTtm4NHKRjoh1ztH6ZMrYzzxf4zlnsGMd464wd6/931qVS7BfL++qLkRoe3m8AyPfMLB0j3jfesN2BHFZct5jYhQttZ+QXfEE+6+RS/5NHTv773zLfODLH67Xdg79plnG0y8mTnilFx+r2V16xnQMAF+zsMsHAQVpfETnz6LZtMTsc413Wp4/tvEBH0YtF/M/s3Cm71JVVgwbJGskyk4oWtd0HABfqdLJ/nUa88ooMMo42Pn7cdg/+pl1ykY44cCA8LGJBVN+33rKdk18wADhrjrpaRU+dkh/0hFZKTrbdg7+pnX4i16elzZw5ZEjp0hkZtnMA4G97RF3pHBWlE9WVRs88YzvnXMfZLts9APB3nbsVoL6Imfjyy7Z78DcdkL7yVlLStBa93lLP6dO2c/ILBgDnMQPDamVve+452WQcGcFvlAJno6js8PtNCc9F0nPiRNs5AAAAKFj0NRH9aurUwPtK2z24QLdKqPY7dSpkiPFkjZk503ZOfsMA4DwpKcP2lB2+b5/cLKIXpaTY7sEFKidN9LbFi1NS42pFRm3ebDsHAAAABUtSc1cjB375pTwtzaUTVwIUOLeaYSZy2rQZ7V0t12H/fts5+Q0DgP8htH2RlaGlXFd2GEfWcQl5vtdbQuTZM2dCvg7pbG6Ji7OdAwAAgILNs9o0DPnYcQLvM2334A+0kGKyzOfzjC06NiRuzBjbOfkVA4D/YXrDoc1KDvN6TTURSYuPt92DP/AvM1xef+aZGTtG7IlauXWr7RwAAAAUbDNnulq69LffSi0zXEZyoMz3/mUGapVhw9gB9vsYAPyBiikikbOfe04+kat1/vvv2+7BfzMDpayO27nzxDMXzcuclJBguwcAAACFi6+dSKQZPVoaGkfWcYtpvlPWONpp5crkWa5GNGaZ+x9hAPAHXHVV1e8PrRk6QPc/9piUNo5kHD5suyvonb0US0eZHv6tDz0078CAThWa87gWAAAA5Ky0ha6q58wZ/3IRT4tOnQKPm7bdFfTOXvIf+m1YFa33+OMiIqrG2M7K7xgA/EnTXx6+K2L07t0mw7NMIx955OcJYHa27a5gZZ4xw+X7AQOSZ7la5s1PPrHdAwAAgMItdaGrEfr55/qc5zF/z9hY2z1B6+w5zCw1AyXqoYcC5zTbWQUFA4ALlJLitIqMXLZMFolom4EDbfcEncXyiFw9Y0ZKqqtRL06dajsHAAAAwSUp1plT5q5583SzcWTdpEm2e4KNWee5XIcNGpSS6mpUy3fesd1T0DAA+IuSl7kaeWryZNNJeknX8eNt9xR610hjvX/x4goHTPXIvb17284BAABAcEv6yNXIFgMGSKZxJPSFF2z3FHpXyxAdlpiYkuL8EPk5g5e/igHA35RyS3xk1L8GDZLKxpGm48bZ7il0fpCmeunChebzijsjVv3zn666qp6sLNtZAAAAgKoxvqNXp0WWjI2VJOPo4DlzbDcVOmfPWcm94otEJo0YYTunoGMAkEOSh7ga9eXgwfKAcbTHgAHsCPibQuSf8mRSUoWl5raIEw89lJIa2009mZm2swAAAIBfSktr3141OztZXY1I6dJFxskA/c/o0ba7CqzAOSpDF8rdvXqdO2chRzAAyGHJd7sa+drEiWadZ5nedN99MleKSMiRI7a78r0w48i8zEzjN4706907eUb8VVGvdu/Od/wBAABQUKgak1w6vkRk22HDjNFt0uCxx2SQcbQxT6v6Q2e3+uunIp6n778/eYHzZdSGadNsZxU2DAByybllgSfMYE+pevWkpNSS+NWrbXflO92lnHb++mu/J6SHueyWW1juBwAAgMIgJcV5NerbOXNCmodeYS5p0MAMl8tkyaZNtrvynbPnJE/j0F267Nprk6a7GrF96VLbWYUVA4BclqyuRuiuXRXGm/aRU2+/3fQ3jqzr21dKG0cyDh+23ZfnekuIPHvmTOBenhN3lbjozFP166dOjZtZpu2GDbbzgGDmeVFEy+7dK/ONI3O8Xts9AP6Gs5/H5z6vAVgzY8eIPVErt27N6Gsej+zcoIExxlEdMkSKS5jee+KE7b48t8M4si4jwxj9t2qPHoFz0syo4TMjX/v+e9t5hR0DgDziqquqfn9KDVejWj77rPGJhLevXl26GEc/nD49cAm87c4c18044jUmsMXfc23IB+bza64J3Msz78CAThWac0kUkB/MbOZqxNJNmzwdi44N6VqjxrnlprdKqPY7dcp2H4DfERiwt5N2siAl5cyQIhXCb6tVK/B5bTsPgEjaQlfVc+ZMSoqrkZFjx4b+FJqqTWvXlnnSWh998UVJFY8sL4S3vgbeR5w995y5s0iF8Io1a6akOOsjI2fODJyTbGcGi1DbAcEqJdXVizemp0uqiNzbs2e3lokrvUXHjDGNMx15/qmn5F0RGRcTIzXUlUYREbZ7/7Szn+Am0gyTW9PSZEbINrl/woSU1LhmkWs2b7adB+CPzZw5ZEjp0hkZIjJEZPDg7t7E7r6rp0/3V8jqKQuGD5chslCue+IJqS9GangYJAM2BAbsFUQkcuFCz0iRkH6DB8+c6Wrp0t9+azsPwB+b/vLwXRGjd+8WketFunTp3t0xh15JSPCrbs/uNmCAzJbXJenhh6WTnJbskiVt9/5pgSsJy2m6hM+ebUzY9dnVJ09OeXTY8LL37ttnOy/YMQDIJ5KWDb8z6tSPP8oyEfly8OCYGMfsfWPkSM864xR9qlUrf4KISPv22kZE6rRoIV3VNbOLFbMWHFjal6iLdPOaNZ5HTBsz//XX9cOiYz3758+fOXOInj1AiDxu+9UF8Hf84pK8mfJabGxsV8ekt05NlSQRLTJxonRTV5KbNrXdCQQDM1KqS6l16zw3hVyty/v3T/o2bktkxw8/tN0F4O/77wFe9+4dy02Yu79L//7FzInlYd3btvW84X9FpnXoYDJENPm226yfB7ZIuNY6dkxmyw3yyIoVstr8wzSbPz/8vqh7Ivu8+ea0Fr3eUs/p05Ji+5XFLzEAyKdSUly9JDVwT9CCBXLvz3/tbBzz3TdFixY76EkqfWODBnKlOewv2aSJ+cT8S6+54QbJMv8wfWvUkE90lMZVqyZrJMtMKlr0T//EgUuPPjIjZP/330tfEX1m507zrIj0+fjjkFtF/Gs+/vjEaZGQJatXz9H4thF66NB//Rilbb96AHJT8ixXy7z5yScyS0Tkttui5zvGu61ZM88wTZUXn3lGmsteqVKnju1OoFA4uyzXTNcD5sXhw1PKO49GhixcKCKiHY2xnQcg95y7VTZFRGTOHBF5VVrOmdP3o8mNvp9UrNiJ9ofXlmjRtKn5l8dj5jVsqIP9fn3juutkkz5n0uvWlaqmpxy79FK5Rl1JKFLkT//EgVuK7jLD9Z3vvpMNImbZpk1ay1NcOnzxhanlP+FpuGaNqXNJcun9a9emVI+969zjup+x/arhjzAAKGDmqKtVNHAv7po15/5aXe6SlWf/pbOfeMaoPj7JMUfWRkSE7xQxtUuXzvok5Iy/frFiel12eHbXIkVCQkTCeh46lJ0dfkXmcydPVsw+s7vM0IMHf/X4vYYiMvAXIXr2fwByzjDTWkYVKybDbYdcmNRHXI36csWKmOjkJFO/fn1x9joZvbt00U0icmDkSHldXTOjfHnbnUCBcPYxWDJFx2nN8ePD90bcGLHk2WenpZ79TlpBc1hOyqzixUVEJN52DFA4PHPz0+su73fypIioyFtvyfUicuVbb8n5785/kqdERGLqOOboujJlQkJFst/7/1sJAueCsAHZ4VljTp8OuUgk5KIDB6bVdjUq4cgRERkhIiIVRaTML37ctaKyUkTWisho268GLhQDgEJM1ZgX+rkq4vP9/E8CfxWRDSLnDhm/PGykiBa0wwdQaIzXqTKwShUREVloO+bCpaTGdlNPZqakSjeRlJQeCxxz4LWXX85OMk5IZP/+Ei6i9w0caP2SRSA/OfudNm0jnfTrpKSTSaaSvuo4c+6LHxShhw7Je/KW7cS/paXsldFVq8orInLGdgwQnM7tHhMRKX32r7/UXkQ62K5EXmF5EwDkFwvlkPgvu6zLqNHlj24sW9Z2zt81o72r5TocO5asrkZpfHz2RBETe+WVgS3l0tA4si4723YnkKcCy/vijSMmLS3bE9IxxH/VVUlb46+IfK137znq6q9urSuAur3tmP1vlysnpUwf2XfppbZ7AAA/YwAAAPnF2a36Ya1O7z9zb3S07Zyc9nxvV6Na/vBDcrP4q6O6x8Z6NoQk+G9s2FA6GEcn/+c/tvuAXFXEOHJq7Vr/MhEd0bhxckVXo8q0b//8VSMqlx713Xe283Ka+VEkLKtbN0lSV6KUmwYBIJ9gAAAA+Yw21cla86mnzn0HrZCaOTMurmzZTz9NvsPVyFF33OFvYhxp+o9//HxlAI8NRQG3zDjaYvt241cR07598lRXoy69+ebU4a5GvvbRR7bzcssTdUY9+9OK8uXlEhGd26OH7R4AwH9jAAAA+U0HOWoWVKhgBoiEZS1e3K6tY4w/PNx2Vm4LLBOs0EUkssW110pZ4xjt3Flek4u1/f79tvuA3xV47nUXfVlm9elT4XuRiLV16qSkOvFRZdLSbOfltpjo5CTjDwsL2Xymd2jSa6+x/BMA8icGAACQX92krjS65ZaI6Trf51+16oltCbsODTu7JLAQc9VVVb8/OdHVMpFz554IL1H2zMDq1WWHTtWdgwefe+4wYNMs42iXkyelsnGk6bhx5qFiY7VztWrJjZyvowZMmfKrp+kUUk9McYx32WWXydi9sb4xK1dKN3UluWlT210AgN/GUwAAIJ/TONkphxs1CmmR/WN2zU8+id3mmIzyI0ZUqClSel9KSmE/aJx7DvJ7IiLjxnVrmdjQW/Sll0y7rAqyIC5O9pjaUunxx2W9utIoJMR2LwqpwPK+CiISuXChJInovwYOTFZXI3XXLhERibIdmfsc4xjjDw3dv13kUMWYGNmu4/3ehAQZKielW2Sk7T4AwO/jCgAAKCiWy0lpGRkpz6jr3zJ9+v4vdGbGvV99FRPtxnvT27WznZdXkpYNvzPq1I8/BpYJ/vxPr7lGnjSOPLdsme0+FDJljaOdVq7URSEvhAy+/vrA8r5kdTUicPAPAtHzHeOt06zZ/iqa6tv42WeBP4fO/bkEACgQGAAAQEE1Uw6YOVdeqR4jogsWxPwU/5I3a+3a6ETH+DrcfLPtvLyS3NXVqJZbtiRf42qU06pVYJmgGS6XyZJNm2z3oYCpJ+W1wbZt55b3JboauaxZs6TEuCdKL/7sM9t5eaV795EjDx68/vrY6+PTfFP/8x/PanVl1bvvSnPZK1Xq1LHdBwD4axgAAEAhEbhVwNNSxCR88EHsPsd40xcsCJbdAQGBZYIVLzOPRz523XXnlgleahy9c98+233IZ8pKcZmUnn5ueV930y1iZ926wbK8LyBwL3/sivivvDOTk/2f+I3nm48/lhvkK/PIbbfZ7gMA5Ax2AABAYfNfz91u1y6kd3ZItue++7rVit/t65CUdHKLqaSvOs4cdTVCDx2ynZtbAssEf/67uXM7lpswd//bixYVr3NiavjOnj2lm98rNw8bJivVNQcuvth2L/JIcQnTe0+ckHJmqDk8bVp4PREZN3r0tEbxA6NaHjkiIioDbEfmvh4LHHPgtYsuym4nEtK+f38JF9H7Bg6UrpJmZhcrJvVtFwIAcgNXAABAYTdFsqVPeLhpIrPNjF69ii7R8f5533wTe4cb6Vs/aNBTy6febfxFitjOzG2BZYLJ7zm+yIbjxmVuEPG3uOoqaSftZEFKijQ0jqzLzrbdiRy2UVR2+P0SbxwxaWmhP4WmatPatZOHuBr15eDB01q4evbgX6gFHtMXs9cxvqdiYrJLioQu3rlTuqkrPseRruqa2cWK2e4EAOQuBgAAEGwCS7tqmF6m+tixZy7x3Ztx76ZNv1wmaEzgCoLCa9YEV8u8uXdvYJlgyJjQK2Ry3bqBg6LtPvw9Ok+u0btWrJDmnoae7+rXDyzvm/7y8F0Ro3fvtt2XVwLL+/TdfR7fxo0b1VXXxCcny+vqmhnly9vuAwDkLQYAABDsfmOZoC/7o4+6VR1Z2zfvllts5+WVGTtG7IlauXVr4KAYWCYoQ+VyGfX557b78PvMEONo5a1bNdQ4nptbt046Ef9g5Kf/+EdyYtzdEQ998YXtvrwS29Ux6a1vuCHWOMbb9v33Wd4HAPglBgAAgP8SWCZoFmV/ZRquWRNYJti9u2MOHapa1XZfXgksE6xQyXSNnHT99YGt8Ka/cWRd8HwHOb8yfaWk1tu71zjG0fjY2IwBV6dFHKlbN2m6qxHbly613ZdXunsTu/s6XH55YHmfbNaROmz9eummriQ3bWq7DwCQvzAAAAD8tsAywXh1Rdu18z+lidmTtm79eZnglCmdjWMyTOnStjNzW2CZ4Lmt8BNETr9Ru7bs0Km6c/BgmStFJKTw30Nu3SDjaOPjx6WycaTpuHFZLxRr4b/uqqtSLnE1clpKSlpa+/aqhX+HQ2B5X6xxjNfEx/v/nXWpFPv6a0mTNGkfEyP1xUgND+/vAAC/iS8QAIA/h2WCIiKSkuLqJaknTgSWCZpHzeDwO6pV09XSRXtMnSqp4pHlWVm2Owu8s8v7zH3G0TfmzTNjw6/IfqRGjcDyvlkTBl1V5s2jR21n5rZfLe97QSeFrvrmm3PL+9ZIlplUtKjtTgBAwcAAAADw15y/TPBF778zHt+8OdiWCaakunrxxvT0pK3xV0S+1ru3ecKMMFexTPCvCizv84wxcZ7E665LaeFq5OOdOqWkDNtTdvi+fbb78sq55X399sb6fvjss3PL+yrLMZNQrpztPgBAwRRqOwAAUEhEqGsm1qihYkRkwYLYRY7JKLN+vXlLxOft3z8l1dXIqA8+sJ2Z21JSXC3TYNs2SRERad++29uOSU+54w6Tri96fpowQVbLbtOjPk9ZD+hrHDn+1VdySEQ/HzgwKdnVyE+XL5dmtsPyVmB5n7wgokUmTjx3D/9q22UAgMKEKwAAALnjHXXN1w0bag8R4129OliXCSY1d7VMzHvvJT8S3yVi+A03BJYJygGJlDd37bLdl+d+MI5e+uOPgeV9vhFXp0VeXq9eciNXI+9dvtx2Xl5heR8AwAYGAACA3PU/lgkGDj4x0Y45Wr9MGduZeUHVmMAyQV+IeSqyU82a0kVflll9+khp40jG4cO2G3NcYHlfknEk0nWLDyt10/FRNWoE2/K+wNLM2DGO8dYZO5blfQAAG7gFAACQt84uExSRNJGYGG2lxc6UaNs29hs30ldz/Pjw/hE3RjR49tlpLXq9pZ7Tp23n5pa0ha6q58wZWSgiMmXKk+tHrzxy5qWXst477WS+MmCA3KeJ8kDfvr94vQqGwBLEd6SNHJs1K+QTkax4x5lR1dVyun+/7by8EljeJ+7e2IzeXbro3TrJPJmQIJXlmKwqV052iRjbkQCAoFPolzMByHvdnnRMRs1WrUyWuv6P3nzTdg8KFjNQyuq4nTs9osdNkcGDk6o5A6MSFi2y3ZXXoi92zMH1V17p+VrEUy0xMXAFReD/T06Oj4+KsrdkMTY2Pt7rNefOsIHlff5HPLXknaefTkmNqxUZtXmz7dcxr3X7xh3vHdGmjV9MCT09dqyOl4NmUPXqtrtQsBijN6i2apWS4rSKjFy2zHYPgMKDAQCAHBcTPXKrz1u3rnr8rxnZtMl2Dwq4u4yjV/68TFC+Dp5lgufrXt0x3mWNGvm/0JelwqRJySXiH4m6/pZbbPX8/Fi6Tz7RiiLZU/v3T1ZXy+r779t+nfJadK+R3dMXNmjgKeK/TVdNnChHZKvEN2liuwsFm3+jZ4g2qFMndUNckchvv/rKdg+AwoMBAIAcFxPjmL3RxYtrEx1VNNPr5TnVyBHdjCNeY+QzEdmxYIFng0jILUOHzpzpaunS335rOy8vBR6vqGqsXkWeXzryUmCJpb+BSPaHo0fLdSJSo337c7sugL9jlnG0y8mTxVeVuul406ioZ25+et3l/U6etJ0FoPDgCxWAXBP7cPwGnztnjlwsy0zPTp1s96CQCTOOzMvMlPt1ixSZPfvM+vA7whsOHz572NCfLq5/8KDtPBQO3buPGXPoUESEv9KpwdmNBw2Sy3WU3tC7N4NN5IoWxtGms2cn3+dq5Jddu9rOAVD4sG0WQO6p6vHqlZMnS28JkWfPnLGdg0ImU13pGBYW2KIeXufM02e+3LYtZodjvMv69GnX1jHGX4CW5yFfCPy+Cfw+8t992pO9ZOdO2aWurBo0iIM/csXZr5OeEiJa+dlnbecAKLy4AgBArouJdoz3sV691KOuTJoyxXYPgkRViZBv9uyRo6aXqT5iRHKiq1ER8+aJBNcl6/hzYku7r2V0bt3afGrSTfnJk1neh7xkhui/jK9nz5TKzmdlakyfbrsHQOHFAABAnold4JZMPzZkiBzzH9ZVCQmyXl1pFBJiuwtBYrLUkF0ffSTtPcl6S//+ycviVkeeWrvWdhbsiG05somv6E03yQJ/rPlw4kR5WnZI5Ztvtt2FINHQOLIuO1te8kRpmWHDkt9zfJENx42znQWg8OMWAAB5Jrm9c6TMRWPG+E+GFPUUu/NOOS4VpfiWLba7ECQCB7zE7FVm04cfxu5zjDd9wYKYmIRXDneqVs12HnJX4OMc+LgHfh9w8EeeOvt1L/B1kIM/gLzGFQAArHGMY4zxePaPEPFmPPqoPKeTPe3GjZMOctQsqFDBdh+CBMsECyWW9yFfKCvFZVJ6urTS5yUiMbFCQ//2yH7Tp7vqqnqysmznAQg+DAAA5Bsdy02Yu//tEiWK1znRJ7x0z57Sze+Vm4cNk5XqmgMXX2y7D0Fih3FkXUaGiCdKy4wbd2ql33v4xilT5qirVfTUKdt5+G0x0clJxh8WJu7e2IzeXbpoURFzKjFRhqgrY8uWtd2HIFFcwvTeEyeknBlqDk+bFl5PRMaNHj2thatRLY8csZ0HAAwAAORbXQc4Jr31JZeENdct2sJxZI+pLZUef5zdAchTLBPM1wLL+8Txt/frM8/INnVlErd0II9sFJUdfr8sMXFSfdGi0H5hVTyTBwyY/vLwXRGjd++2nQcA52MAAKDAiJ3lGO+y2rXNw/pvWTJunPaWj2V0q1a2uxBkEo2jbTZskHtF9Ob+/ZPXuhoxevVq21nBoltLx3iL3nijf66IjJg4UYeqK91uvdV2F4JMWeNop5Ur/dtEdGn//qkLXY3Qzz+3nQUAf4QBAIACK3q+Y7x1mjXzrBSRRydOlDB1JbpePdtdCC5mitwoQ5cuDV1i7sm+o2/fGe1dLddh507bXYVFTLRjfN5KleQBEXkjMVEriphbH31UktSVKOV9DPKEGWIcrbx1q4zyuOY7x0lJdeKjyqSl2e4CgAvFF04ABd6vlgmGi3juGDtWflTXrKxY0XYfgsR5ywQ129TOrDpiRFJzVys0P3DAdl5B8fgkxxz+KDIy9IxIVszAgbJERJr06SPXqCsJRYrY7kOQOG95n29SrcTI/s89l5bWvr1qdrbtPAD4qxgAACh0YmIcsze6eHHd6Ykq+sRTT8laM8DUHDpUOslpyS5Z0nYfggTLBP8UlvchX2B5H4AgwQAAQKEXE+2Yo/XLlPF8oHsya4wYYbbLHNOqRw+JFr+0CA213YcgsdA4cuT776W7iCk1fHiwLxNkeR+sOru8z7gmTr+aP1/eCL8ie9+gQSkpw/aUHb5vn+08AMgtDAAABJ2YGMekb7jqKnVFtMrIkRKvrmi7dra7EGSCbJlgTPTINt7HGjbUB/xt5daJE+Vfsl3ub9zYdheCi86Ta/SuFSvM057i2r9//+TEuLsjHvriC9tdAJBXGAAACHqxtdz96T/ceadk+svroAkT5E51Zep119nuQnAJHEyyr/a0lIw+fVI3xBWJ/Parr2x3/VWx6xIGHLy1Rg25Imu85/VRo2S/iPjatmV5H/LUcakoxbdsMcX1Uj05cGBKitMqMnLZMttZAGALX4AB4KzAMsF9MR7X523TRtNNpCwdP17KiU9aV65suw9BooAuE2R5H/KFH4yjl/74o0kVkeiRIzN6X50WMfWFF1jeBwA/YwAAAP8DywSRL2yRcK117JisNkPMT5MmnRKRIzJ2rO1lgu3aOsb4w8Mj+3tq+iZ17y6Xm67SJD5eRsopqV66tO2XDUFikHG08fHj8pqICXnuuUxf8e2myqhRsyYMuqrMm0eP2s4DgPyGAQAA/EksE0S+cHaZoNksopMTEytWFImY+vzzrrqq6vfn5k9tjGpMtBvv87Ztq0tMlIwfO1buF68MqlrV9suCIHHe8r7QYyJZFw0cOKO9q+U67N9vOw8A8jsGAADwF3UPT2ie3rpmTf/urLd0dkICywRhhUpl7fHJJ/66nliN7d8/9cm40xF3rFqVUz989+qO8S5r1MhfXERk4kS5SV1pdMsttn/ZCC6BHRm6xDygFfv1m9nM1YilmzbZ7gKAgoYBAADkkG5vOyY95Y47TLq+6PlpwgRZLbtNj/r1bXchyFwjjfX+xYvNFyEHQ6oMHJiSMuKhUnO/+ebP/uc9FjjmwGvVq2cf1JWhz40bJ5vkA/PGgw/a/mUhyDSRK3TGxo1axjzmLz9gQFJzV8vEvPee7SwAKOgYAABADgssE/wpxfOY991HHjFD/S9qjVGjpK26UvLyy233IUicvVRav5K6+uR770m4PmJKv/++/wf/CU+x3bsD/5rnMk9x/8krrjA9/Se06O23y9s60oy4/XapL0ZqeDy2fxkIEmdvbdHRnsfMjmHDysf4X4z6x/z5eXFrCwAEEwYAAJDLfrUs7XX/dnnAdeWQuhJRqpTtPgDIc+cttyy+ttRNJyaPG/fMzU+vu7zfyZO28wCgsGIAAAB57Mn1o1ccGRUVlfXe6TszXxkwQO7TRHmgb1+ZItnSJzzcdh8A5LhU8cjyrCx5R9rIsVmzsvuEvZtVIy7u+S+H9Snf7KefbOcBQLBgAAAAlkVf7JiD66+80vO1iKdaYiLLBAEUFoHlffK6eUA69O2b1NzVyIFffmm7CwCCFQMAAMhn2LoOoMA6+1QKmWk6Z786YECyulpW33/fdhYA4GcMAAAgH+O56wDytbPL+8xmEZ2cmFixokjE1OefZ3kfAORPDAAAoID41TLBy01XaRIfLyPllFQvXdp2H4AgcN7yvlMickTGjp2jrlbRU6ds5wEAfh8DAAAooB6f5JjDH0VGhp4RyYoZOFCWiEiTPn3kGnUloUgR230ACoEw48i8zEy5X7dIkdmzNdvUzqw6YkRSc1crND9wwHYeAODCMAAAgELiyYcTK2cMveKKzEczvzPVEhK0ooi59dFHJUldiVL+vAfwp5kpcqMMXbpUPw/5j3/L008nNxoxoeyaHTtsdwEA/h7eEAJAIRUTPbKN97GGDfUBf1u5deJE+Zdsl/sbN7bdBSAfSjSOttmwQe4V0Zv7909e62rE6NWrbWcBAHIWAwAACBKxpd3XMjq3bi2Ov71fn3lGtqkrk6pVs90FwIKqEiHf7NkjR00vU33EiOREV6Mi5s0TEVE1xnYeACB3MAAAgCATE52cZPxhYeLujc3o3aWLFhUxpxITZYi6MrZsWdt9AHLBDuPIuowMEU+Ulhk37tRKv/fwjVOmsLwPAIILAwAACHLdu48Zc+hQRIS/0qnB2Y0HDZLLdZTe0Lu3rJEsM6loUdt9AP6C85b3nVkffkd4w+HDZw8b+tPF9Q8etJ0HALCDAQAA4L/ERDvG561USR4QkTcSE1kmCBQcgeV90ivkcOjJPn1SUkY8VGruN9/Y7gIA5A+8kQMA/K7oXiO7py9s0MBTxH+brpo4UY7IVolv0sR2FwARWS1V9daPP9ZVnoFaon//pHJx+yM2rFljOwsAkD8xAAAAXJDAMkHzqUk35SdP1vFy0AyqXt12FxAMTH/jyLrdu3WOiLkpLo7lfQCAC8EAAADwl/xqmWAXnSTZCQlSWY6ZhHLlbPcBhUILKSbLfD6ZouO05vjx4f0jboxo8Oyz01r0eks9p0/bzgMAFCwMAAAAOaLHAscceO2ii7LbiYS0799f5uso7TJoEMsEgQvQW0Lk2TNntI100q+Tkk5uMZX0VceZo65G6KFDtvMAAAUbAwAAQK7o7k3s7utw+eX+z7J6mtuGD5chslCue+IJqS9Gang8tvuAfKGbccRrjFQQkciFCz0jRUJCBw+eOdPV0qW//dZ2HgCgcGEAAADIE7FdHZPe+oYb5AURLTJxonRTV5KbNrXdBdhgRkp1KbVunecmz2h9pX//pG/jtkR2/PBD210AgMKNAQAAwIro+Y7x1mnWzDNMU+XFZ56R5rJXqtSpY7sLyBXdpZx2/vprM10PmBeHD09JdeIjoxYuFGF5HwAg7zAAAABY5RjHGH9o6L59Ihm9u3bVTSJyYORIeV1dM6N8edt9wF8y3zgyx+uVGz1ResuECSzvAwDkBwwAAAD5yq+WCYaL6H0DB0pXdc3sYsVs9wG/6bzlff7GRV+WGXFxKamDh0RGHT5sOw8AABEGAACAfO6JKY7xLrvsspCrdYvsGTFC9pjaUunxx2W9utIoJMR2H4LUecv7sg+H7g55ZtCg568aUbn0qO++s50HAMBvYQAAAChQYmIcczCxfn39p0jIyYkT5TV1zdO33267C0GiiHHk1Nq18k1IU63Wr1/ysrjVkafWrrWdBQDAn8EAAABQoJ1bJnhaRMZNnvzzlQF169ruQiGxzDjaYvt2c4/HNctGjEhJdeKjyqSl2c4CAOCvYAAAACgUHOMYYzye/SNEvBmPPirP6WRPu3HjpIMcNQsqVLDdhwIisLxvhaemZCckVGjo3x7Zb/p0V11VT1aW7TwAAP4OBgAAgEKpY7kJc/e/XaJE8Ton+oSX7tlTuvm9cvOwYbJSXXPg4ott9yGfKC5heu+JE1LODDWHp00z3xYbq6vGjGF5HwCgMGIAAAAICt1aJq70Fr30UtM3q4I8ExfHMsEgtVFUdvj9ssTESfVFi6SCiCdq4MBkdTVCd+2ynQcAQG5iAAAACEqxsxzjXVa7ttwgIp+MHy/T1ZWeLVva7kIuKWsc7bRypUrIC54iAwYkJcY9UXrxZ5/ZzgIAIC8xAAAAQH6xTHCliDw6caKEqSvR9erZ7sJfVE/Ka4Nt28xn+pP5OC6O5X0AADAAAADgv/xqmWC4iOeOsWPlR3XNyooVbffhfygrxWVSerq00uclIjGR5X0AAPwaAwAAAH5HTIxj9kYXL647PVFFn3jqKZYJ5hPnLe8Lryci40aPntbC1aiWR47YzgMAID9iAAAAwAXoOsAx6a0vuSSsuW7RFo7DMsE8ct7yvtB+YVU8kwcMmP7y8F0Ro3fvtp0HAEBBwAAAAIC/oUeNhEreO2vVyl6dtVtec12JV1e0XTvbXYWFzpNr9K4VK8zTnuLav3//5MS4uyMe+uIL210AABREDAAAAMhB55YJNtZZcteECTJavpdh115ru6ugMEOMo5W3bvVMENFLBg5Mmu5qxPalS213AQBQGHhsBwAAUJikPuJq1JcrVlSoZLpGTrr+euNXEdO+velvHFnHpernM32lpNbbu9c4xtH42NiMAVenRRypW5eDPwAAOY8rAAAAyAO/Wia41gwwNYcOlU5yWrJLlrTdl2cGGUcbHz8ur4mYkOeey/QV326qjBo1a8Kgq8q8efSo7TwAAAozBgAAAFgQE+2Yo/XLlPF8oHsya4wYYbbLHNOqRw+JFr+0CA213Zdjzi7vM66J06/mz5c3wq/I3jdoUErKsD1lh+/bZzsPAIBgwgAAAIB8ICbGMekbrrpKXRGtMnJkQV8mGFjep0vMA1qxX7+ZzVyNWLppk+0uAACCGQMAAADyoW5vOyY95Y47TLq+6PlpwgRZLbtNj/r1bXf9T32NI8e/+koOiejnAwcmN3I18t7ly21nAQCA/8cAAACAfM4Y1ZhoN97nbdtW002kLB0/XsqJT1pXrmwt6gfj6KU//mhSRSR65MiM3lenRUx94YW0tPbtVbOzbb9mAADg1xgAAABQgPT9aHKj7ycVK3ZizpG7iz924oStjuKdS7514sXixZ+5+el1l/c7edL26wIAAP4YAwAAAAqg2Nj4eK/XGFs/f3JyfHxUlPI+AgCAAsRjOwAAAAAAAOQ+BgAAAAAAAAQBBgAAAAAAAAQBBgAAAAAAAAQBBgAAAAAAAAQBBgAAAAAAAAQBBgAAAAAAAAQBBgAAAAAAAAQBBgAAAAAAAAQBBgAAAAAAAAQBBgAAAAAAAAQBBgAAAAAAAAQBBgAAAAAAAAQBBgAAAAAAAAQBBgAAAAAAAAQBBgAAAAAAAAQBBgAAAAAAAAQBBgAAAAAAAAQBBgAAAAAAAAQBBgAAAAAAAAQBBgAAAAAAAAQBBgAAAAAAAAQBBgAAAAAAAAQBBgAAAAAAAAQBBgAAAAAAAAQBBgAAAAAAAAQBBgAAAAAAAAQBBgAAAAAAAAQBBgAAAAAAAAQBBgAAAAAAAAQBBgAAAAAAAAQBBgAAAAAAAAQBBgAAAAAAAAQBBgAAAAAAAAQBBgAAAAAAAAQBBgAAAAAAAAQBBgAAAAAAAAQBBgAAAAAAAAQBBgAAAAAAAAQBBgAAAAAAAAQBBgAAAAAAAAQBBgAAABQgnY1jMkzp0nQAAIALpbYDAADArwUO2EViPY1MxkMP6Wb/OqnzwANyvYgZeNttkqmudAwLsxYYZhyZl5kpj+q/tO9//iMp5j5Z/frrJqTYWKn9yispqYOHREYdPmz7dQQAAP+PAQAAAPlAdIORp31Vr77aM8a/0wzo1Uuqmto69ZFHZJy65oMSJWz3/WmDjKONjx8334qY+156SfeIyK1TpyZ3dTWq5ZYttvMAAAhmDAAAALAgJtoxPm+lStpBt5gFw4bJHlNbKj3+uKxXVxqFhNjuyzEbRWWH3y9LTJxUX7TIOKGvhj49ZEhKyoiHSs395hvbeQAABBMGAAAA5IF2bR1j/OHhkWkiPh06VLZqosQNGSJTJFv6hIfb7sszm4wjI06fNnU94XLlqFFiKkyL7DV2bEpqbDf1ZGbazgMAoDBjAAAAQC6KHT7yrYxX6tUzsf4f/KfmztVE+UHuveYa2135RqZxJPWLL0xIyDaN7tgxJTWuVmTU5s22swAAKIwYAAAAkAtiYhzj8z38sJbQ0dI6NVVOSKZZUry47a5861YJ1X6nTskjZpg51r17sroatfDFF21nAQBQmDAAAAAghxijGrvbMb5+48bJaHVl2IABtpsKrNXG0V1jxiRvdTXy+qFDbecAAFAYMAAAAOBvMkY1tp9jMgZNmSLH1DWDnnrKdlOhESL/lCeTkipMNzUjX3nySVddVfX7bWcBAFAQeWwHAABQkHW7KH6T76uUFA7+uSRbXpXp3brtf1K3+x6aPt12DgAABRkDAAAA/oJY4xiviY83j8hiqfjEE7Z7Cr2zg4DYmxzj7TF8uO0cAAAKIgYAAABcgNiJbm/fioceks9FZEdcnO2eoDNDRPqMHNmtnmN8Vdu3t50DAEBBwg4AAAD+hJiYhFcOd6pWTedl78qaunGjdJLTkl2ypO2uoLVFwrXWsWP+z82Q7Devvz71qKtlG379te0sAADyM64AAADgdzjGMcYfGqqe7NPZp199lYN/PlFbzpitF13kuUznhXSZN69duwULjAkJsZ0FAEB+xgAAAIDfsW+niO/fPXuKkV1mxg032O7BeZrIt2bNjTdG6taRvht79LCdAwBAfsYAAACA39B1gGPSW19yiV6jY+UW17Xdgz9Qxb9ZXklI6LHAMQdeq1DBdg4AAPkRAwAAAH5D+HwRTR8+nEv+C4hD6kpEqVJ+R/eELh4yxHYOAAD5EQMAAAB+ISZmVKWDiRUrmvE6Smt26WK7BxfGDJN5UiwmJnAFh+0eAADyEwYAAAD8gpbLXO9p07+/rJEsM6loUds9uEBnP26h92uGenr3tp0DAEB+wgAAAAARadfWMcYfHi5PmwoyuWNH2z34e/SoidCinTvHRCcnGX9YmO0eAADyAwYAAACISESEx/X57rtPhqgrY8uWtd2Dv+l1dc2M8uU9e/dn+Yq3amU7BwCA/IABAAAAIqIj/Y5Iu3a2O5CzzKumvvyzbVvbHQAA5AcMAAAAQc0xjjH+0FDx6zj55h//sN2DHPaerJE77r67XbsFC4wJCbGdAwCATaG2AwAAsGlfjEhGRqNG6pFTUr10ads9yGHL5aS0jIws89lX7XzLGzT4+R+uW2c7CwAAG7gCAAAQ3NRzudzZsKHtDOSu7NtFJO3GG213AABgEwMAAEBQ09n+703UddfZ7kDu0vm6UX/i4wwACG4MAAAAwa2jiPyjTh3bGchlnWSzlOTjDAAIbgwAAADBbYGIhF92me0M5LJLTGfZfumltjMAALCJAQAAICi1a+sY4w8PlzUi0ioy0nYPctmbOtIklS9/7qkPAAAEIQYAAICgdNF1RSoc+7xUKUlSV6JUbfcgl9UXIzU8nh8mixxZV7Kk7RwAAGxgAAAACErFapzef3IHz4UPNiHbRDw9Pbz/AQAEJb4AAgCC0qkNIp6XOAgGG09bkeNj+LgDAIITXwABAEEpe7xIyJITJ2x3IG95Dot4DvFxBwAEJwYAAICgNEddjdBDh6S3hMizZ87Y7kEu22QcGXH69Iz2rpbrcOyY7RwAAGxgAAAACG4DzHCdcPCg7QzksjH6rIzj4wwACG4MAAAAwa22LjDR33xjOwO5rJ9cprN37rSdAQCATQwAAABBzbSQBlpz0ybbHchlP5m2Mv+LL2xnAABgEwMAAEBwq2mqyPbNm21nIJc96GlpFvNxBgAENwYAAICgFlI59G7/rlWrbHcgd5lTno6hQ95/33YHAAA2qe0AAADyg9h1jvFO+PZbma2udK1SxXYPckgX48is775LbuRq1ICqVW3nAABgE1cAAAAgIvqgiCx+6y3bHchZ5qR+p8WWLbPdAQBAfsAAAAAAEcnuIaKVXnrJdgdylmeiqWL6z5tnuwMAgPyAAQAAACKSOtzVyNc++kjqSXltsG2b7R78TcelohTfsiVpmatRpz7+2HYOAAD5AQMAAAB+qb4+Y7onJdnOwN9jEjXJ/DBjhu0OAADyEwYAAAD8gpnl337669RU2SUX6YgDB2z34AI9YBzt8dNPJfZeXOTkklmzbOcAAJCfMAAAAOAXUlJcvST1xAndYfrJTZMm2e7BhTGLPZfL9gkTnrn56XWX9zt50nYPAAD5CQMAAAB+Q9hzUfdEPDJlinSXctr5669t9+D3mYFSVsft3Fnk/og6ERufe852DwAA+REDAAAAfsO0Fr3eUs/p02a66W66P/WU7R78PvOVXi3Sq1fg42a7BwCA/IgBAAAAvyMl1dWolu+8I0elpT43d67tHvw386Dcr1VnzUq917ktcvy//227BwCA/IwBAAAAf8KJFSW2nmnUo4csM4622L7ddk+wC1zyn7WiWFF/kz59bPcAAFAQqO0AAAAKktjhI9/KeKVePbkmu7l5dM0aWamuOXDxxba7gsZcKSIhR46YRz33a3bjximpcbUiozZvtp0FAEBBwAAAAIC/IPYyx/ga3n237NUE0/PNNyVa/NIiNNR2V6EVZhyZl5mp1TwbJbZ166S+zvVRxd5+23YWAAAFCQMAAAD+htjhjkn3deokVUV07axZsl5daRQSYrur0GhoHFmXnW3ai3hmPvZYykWuRix96SXbWQAAFEQMAAAAyAHd6jnGV7V9e3OriOn10kuSqa50DAuz3VVgcfAHACDHsQQQAIAckPSFq5HfLljgv8uzSvfed5+UNo5kHD5su6vAiZOisvPQIX8Zzypd1bo1B38AAHIOVwAAAJALeixwzIHXqlfPvkYk5KY33pBn1JUSV19tuyvfOvt0hZBioVeYix54YMaOEXuiVm7dajsLAIDChCsAAADIBTPau1quw86dxX2lbjqR1qCBVDaONB03TjaKyg6/33afdd2MI15jpJ20kwUpKSGTRbKevuEGDv4AAOQergAAACAPRU8fWSTjvaZNPRP80/wln3tOmsteqVKnju2uvGKGy2WyZNMmTxHPcM+Mnj2TysXtj9iwZo3tLgAAggEDAAAALGjXbsECY0JComp+1c63vHNnM1NEasfHS1t1peTll9vuyzFVJUK+2bNHBppeMt5xKohIZNrcua66qsqVEAAA5CUGAAAA5AMx0clJxh8W5mm7NzZjYps25piIjOvTR95R13zdsKHtvj+tiHHk1Nq1ZrJniD49ZUrFEP+YiFcWLXLVVfVkZdnOAwAgmDEAAAAgH+sentA8vXXNmv7rs97Sy9u1k576olZ84AF5VvaYf1x7rdQXIzU8ebfTJ/B4vrtF9K3PP5eDIub1xYtNYxH/ooULU4+6Wrbh11/bft0AAMCvMQAAAKAAiokeO8bnLVVKHz85WD685RYzyxNuvr3+er3drJEZV14pa01D+U+1avKwiLxcoYIMFZHapUvLc5oo60qUOPcD9TTDpdHx4zJaRLYcOiQvi8jD+/f/fMDfuVPe8ISbozt2mFbyru795JOiof6mpumHH05r4WpUyyNHbL8OAAAAAAAAAAAAAAAAAAAAAAAAAAAAAAAAAAAAAAAAAAAAAAAAAAAAAAAAAAAAAAAAAAAAAAAAAAAAAAAAAAAAAAAAAAAAAAAAAAAAAAAAAAAAAAAAAAAAAAAAAAAAAAAAAAAAAAAAAAAAAAAAAAAAAAAAAAAAAAAAAAD8X3twSAAAAAAg6P9rTxgBAAAAAAAAAAAAAAAAAAAAAAAAAAAAAAAAAAAAAAAAAAAAAAAAAAAAAAAAAAAAAAB+AQGE8lyGy3LjAAAAJXRFWHRkYXRlOmNyZWF0ZQAyMDIzLTAzLTI2VDEyOjQyOjM0KzAwOjAwIqBgSgAAACV0RVh0ZGF0ZTptb2RpZnkAMjAyMy0wMy0yNlQxMjo0MjozNCswMDowMFP92PYAAAAodEVYdGRhdGU6dGltZXN0YW1wADIwMjMtMDMtMjZUMTI6NDI6MzQrMDA6MDAE6PkpAAAAAElFTkSuQmCC;" parent="1" vertex="1">
          <mxGeometry x="385" y="350" width="70" height="70" as="geometry" />
        </mxCell>
        <mxCell id="4sLgDafcORPO4dD0YoIv-33" style="edgeStyle=orthogonalEdgeStyle;rounded=0;orthogonalLoop=1;jettySize=auto;html=1;exitX=0.75;exitY=1;exitDx=0;exitDy=0;entryX=1.002;entryY=0.194;entryDx=0;entryDy=0;entryPerimeter=0;curved=1;strokeColor=#4D9900;" parent="1" source="7VKhCpt4MTZpHvpz2MPJ-2" target="4sLgDafcORPO4dD0YoIv-2" edge="1">
          <mxGeometry relative="1" as="geometry" />
        </mxCell>
        <mxCell id="7VKhCpt4MTZpHvpz2MPJ-2" value="Cross-chain oracle" style="text;html=1;strokeColor=none;fillColor=none;align=center;verticalAlign=middle;whiteSpace=wrap;rounded=0;fontStyle=1;fontSize=12;fontColor=#6666FF;" parent="1" vertex="1">
          <mxGeometry x="348.5" y="410" width="143" height="30" as="geometry" />
        </mxCell>
        <mxCell id="4sLgDafcORPO4dD0YoIv-1" value="Mạng oracle phi tập trung" style="text;html=1;strokeColor=none;fillColor=none;align=center;verticalAlign=middle;whiteSpace=wrap;rounded=0;fontStyle=1;fontSize=13;fontColor=#6666FF;" parent="1" vertex="1">
          <mxGeometry x="324.5" y="320" width="191" height="30" as="geometry" />
        </mxCell>
        <mxCell id="4sLgDafcORPO4dD0YoIv-2" value="" style="rounded=1;whiteSpace=wrap;html=1;fillColor=#D1DFC3;strokeColor=none;" parent="1" vertex="1">
          <mxGeometry x="220" y="470" width="140" height="130.5" as="geometry" />
        </mxCell>
        <mxCell id="4sLgDafcORPO4dD0YoIv-3" value="Chuỗi khối đích" style="text;html=1;strokeColor=none;fillColor=none;align=center;verticalAlign=middle;whiteSpace=wrap;rounded=0;fontSize=13;fontStyle=1;fontColor=#4D9900;" parent="1" vertex="1">
          <mxGeometry x="245" y="560" width="90" height="30" as="geometry" />
        </mxCell>
        <mxCell id="4sLgDafcORPO4dD0YoIv-30" style="rounded=0;orthogonalLoop=1;jettySize=auto;html=1;exitX=0.25;exitY=0;exitDx=0;exitDy=0;entryX=0;entryY=0.75;entryDx=0;entryDy=0;strokeColor=#4D9900;strokeWidth=1;edgeStyle=orthogonalEdgeStyle;" parent="1" source="4sLgDafcORPO4dD0YoIv-4" target="4sLgDafcORPO4dD0YoIv-8" edge="1">
          <mxGeometry relative="1" as="geometry" />
        </mxCell>
        <mxCell id="4sLgDafcORPO4dD0YoIv-4" value="" style="rounded=0;whiteSpace=wrap;html=1;fillColor=#b0d28e;strokeColor=none;" parent="1" vertex="1">
          <mxGeometry x="230" y="490" width="120" height="50" as="geometry" />
        </mxCell>
        <mxCell id="4sLgDafcORPO4dD0YoIv-5" value="Hợp đồng thông minh" style="text;html=1;strokeColor=none;fillColor=none;align=center;verticalAlign=middle;whiteSpace=wrap;rounded=0;fontSize=13;fontStyle=1;fontColor=#000000;" parent="1" vertex="1">
          <mxGeometry x="242" y="500" width="96" height="30" as="geometry" />
        </mxCell>
        <mxCell id="4sLgDafcORPO4dD0YoIv-15" value="1) Yêu cầu dữ liệu" style="text;html=1;strokeColor=none;fillColor=none;align=center;verticalAlign=middle;whiteSpace=wrap;rounded=0;fontStyle=1" parent="1" vertex="1">
          <mxGeometry x="230" y="380" width="90" height="30" as="geometry" />
        </mxCell>
        <mxCell id="4sLgDafcORPO4dD0YoIv-16" value="" style="rounded=1;whiteSpace=wrap;html=1;fillColor=#f2e3d4;strokeColor=none;" parent="1" vertex="1">
          <mxGeometry x="480" y="470" width="140" height="130.5" as="geometry" />
        </mxCell>
        <mxCell id="4sLgDafcORPO4dD0YoIv-17" value="Chuỗi khối nguồn" style="text;html=1;strokeColor=none;fillColor=none;align=center;verticalAlign=middle;whiteSpace=wrap;rounded=0;fontSize=13;fontStyle=1;fontColor=#CC6600;" parent="1" vertex="1">
          <mxGeometry x="505" y="560" width="90" height="30" as="geometry" />
        </mxCell>
        <mxCell id="4sLgDafcORPO4dD0YoIv-31" style="edgeStyle=orthogonalEdgeStyle;rounded=0;orthogonalLoop=1;jettySize=auto;html=1;exitX=0.75;exitY=0;exitDx=0;exitDy=0;entryX=1;entryY=0.75;entryDx=0;entryDy=0;startArrow=classic;startFill=1;endArrow=none;endFill=0;strokeColor=#E7BF98;" parent="1" source="4sLgDafcORPO4dD0YoIv-18" target="4sLgDafcORPO4dD0YoIv-8" edge="1">
          <mxGeometry relative="1" as="geometry" />
        </mxCell>
        <mxCell id="4sLgDafcORPO4dD0YoIv-32" style="rounded=0;orthogonalLoop=1;jettySize=auto;html=1;exitX=1;exitY=0.5;exitDx=0;exitDy=0;entryX=1;entryY=0.25;entryDx=0;entryDy=0;strokeWidth=1;strokeColor=#E7BF98;edgeStyle=orthogonalEdgeStyle;" parent="1" source="4sLgDafcORPO4dD0YoIv-18" target="4sLgDafcORPO4dD0YoIv-8" edge="1">
          <mxGeometry relative="1" as="geometry" />
        </mxCell>
        <mxCell id="4sLgDafcORPO4dD0YoIv-18" value="" style="rounded=0;whiteSpace=wrap;html=1;fillColor=#FFCC99;strokeColor=none;" parent="1" vertex="1">
          <mxGeometry x="490" y="490" width="120" height="50" as="geometry" />
        </mxCell>
        <mxCell id="4sLgDafcORPO4dD0YoIv-19" value="Hợp đồng thông minh" style="text;html=1;strokeColor=none;fillColor=none;align=center;verticalAlign=middle;whiteSpace=wrap;rounded=0;fontSize=13;fontStyle=1;fontColor=#000000;" parent="1" vertex="1">
          <mxGeometry x="502" y="500" width="96" height="30" as="geometry" />
        </mxCell>
        <mxCell id="4sLgDafcORPO4dD0YoIv-34" value="2) Yêu cầu" style="text;html=1;strokeColor=none;fillColor=none;align=center;verticalAlign=middle;whiteSpace=wrap;rounded=0;fontStyle=1" parent="1" vertex="1">
          <mxGeometry x="520" y="390" width="90" height="30" as="geometry" />
        </mxCell>
        <mxCell id="4sLgDafcORPO4dD0YoIv-36" value="3) Nhận dữ liệu" style="text;html=1;strokeColor=none;fillColor=none;align=center;verticalAlign=middle;whiteSpace=wrap;rounded=0;fontStyle=1" parent="1" vertex="1">
          <mxGeometry x="530" y="340" width="90" height="30" as="geometry" />
        </mxCell>
        <mxCell id="4sLgDafcORPO4dD0YoIv-38" value="4) Phản hồi" style="text;html=1;strokeColor=none;fillColor=none;align=center;verticalAlign=middle;whiteSpace=wrap;rounded=0;fontStyle=1" parent="1" vertex="1">
          <mxGeometry x="369" y="500" width="90" height="30" as="geometry" />
        </mxCell>
      </root>
    </mxGraphModel>
  </diagram>
</mxfile>
